<svg width="32" height="32" viewBox="0 0 32 32" fill="none" xmlns="http://www.w3.org/2000/svg">
<g clip-path="url(#clip0)">
<path d="M32 16.1099C32.0007 13.0521 31.1251 10.0581 29.4769 7.48249C27.8288 4.90686 25.477 2.85746 22.7002 1.57694C19.9235 0.296431 16.8379 -0.16156 13.8088 0.257201C10.7798 0.675962 7.93424 1.95393 5.60902 3.9398C3.2838 5.92566 1.57633 8.53625 0.688792 11.4624C-0.198747 14.3886 -0.229182 17.5079 0.601088 20.4508C1.43136 23.3938 3.08756 26.0372 5.37359 28.068C7.65962 30.0989 10.4797 31.4321 13.5 31.9099V20.7299H9.44V16.1099H13.5V12.5799C13.5 8.57994 15.89 6.35994 19.5 6.35994C20.7026 6.37678 21.9023 6.48038 23.09 6.66994V10.6099H21.09C20.7458 10.5634 20.3956 10.595 20.0653 10.7025C19.7351 10.8101 19.4333 10.9906 19.1825 11.2309C18.9317 11.4711 18.7382 11.7649 18.6166 12.0902C18.495 12.4155 18.4483 12.7641 18.48 13.1099V16.1099H22.92L22.21 20.7299H18.5V31.9099C22.2628 31.3147 25.6897 29.3964 28.1644 26.5001C30.6391 23.6038 31.9992 19.9195 32 16.1099Z" fill="white"/>
</g>
<defs>
<clipPath id="clip0">
<rect width="32" height="32" fill="white"/>
</clipPath>
</defs>
</svg>
