<svg width="30" height="30" viewBox="0 0 30 30" fill="none" xmlns="http://www.w3.org/2000/svg">
<path d="M15 0C10.93 0 10.42 0 8.82 0.09C7.57244 0.114622 6.33816 0.351333 5.17 0.79C4.16975 1.16389 3.26474 1.75471 2.52 2.52C1.75471 3.26474 1.16389 4.16975 0.79 5.17C0.351333 6.33816 0.114622 7.57244 0.09 8.82C0 10.42 0 10.93 0 15C0 19.07 0 19.58 0.09 21.18C0.114622 22.4276 0.351333 23.6618 0.79 24.83C1.16389 25.8303 1.75471 26.7353 2.52 27.48C3.26474 28.2453 4.16975 28.8361 5.17 29.21C6.33816 29.6487 7.57244 29.8854 8.82 29.91C10.42 29.98 10.93 30 15 30C19.07 30 19.58 30 21.18 29.91C22.4276 29.8854 23.6618 29.6487 24.83 29.21C25.8235 28.823 26.7259 28.2338 27.4799 27.4799C28.2338 26.7259 28.823 25.8235 29.21 24.83C29.6487 23.6618 29.8854 22.4276 29.91 21.18C30 19.58 30 19.07 30 15C30 10.93 30 10.42 29.91 8.82C29.8854 7.57244 29.6487 6.33816 29.21 5.17C28.8361 4.16975 28.2453 3.26474 27.48 2.52C26.7353 1.75471 25.8303 1.16389 24.83 0.79C23.6618 0.351333 22.4276 0.114622 21.18 0.09C19.58 0 19.07 0 15 0ZM15 2.7C19 2.7 19.48 2.7 21.06 2.79C22.013 2.80187 22.9568 2.97777 23.85 3.31C24.502 3.54585 25.0906 3.92915 25.57 4.43C26.0708 4.9094 26.4542 5.49804 26.69 6.15C27.0222 7.04325 27.1981 7.98704 27.21 8.94C27.28 10.52 27.3 10.99 27.3 15C27.3 19.01 27.3 19.48 27.21 21.06C27.1981 22.013 27.0222 22.9568 26.69 23.85C26.4387 24.494 26.0565 25.0789 25.5677 25.5677C25.0789 26.0565 24.494 26.4387 23.85 26.69C22.9568 27.0222 22.013 27.1981 21.06 27.21C19.48 27.28 19.06 27.3 15 27.3C10.94 27.3 10.52 27.3 8.94 27.21C7.98704 27.1981 7.04325 27.0222 6.15 26.69C5.49804 26.4542 4.9094 26.0708 4.43 25.57C3.92915 25.0906 3.54585 24.502 3.31 23.85C2.97777 22.9568 2.80187 22.013 2.79 21.06C2.72 19.48 2.7 19 2.7 15C2.7 11 2.7 10.52 2.79 8.94C2.80187 7.98704 2.97777 7.04325 3.31 6.15C3.54585 5.49804 3.92915 4.9094 4.43 4.43C4.9094 3.92915 5.49804 3.54585 6.15 3.31C7.04325 2.97777 7.98704 2.80187 8.94 2.79C10.52 2.72 11 2.7 15 2.7Z" fill="white"/>
<path d="M15 19.9998C14.0111 19.9998 13.0444 19.7066 12.2221 19.1572C11.3999 18.6077 10.759 17.8269 10.3806 16.9132C10.0022 15.9996 9.90314 14.9943 10.0961 14.0244C10.289 13.0544 10.7652 12.1635 11.4645 11.4643C12.1637 10.765 13.0546 10.2888 14.0245 10.0959C14.9944 9.90295 15.9998 10.002 16.9134 10.3804C17.827 10.7588 18.6079 11.3997 19.1573 12.222C19.7067 13.0442 20 14.0109 20 14.9998C20 16.3259 19.4732 17.5977 18.5355 18.5353C17.5978 19.473 16.3261 19.9998 15 19.9998ZM15 7.2998C13.4771 7.2998 11.9884 7.7514 10.7221 8.59749C9.45584 9.44358 8.46891 10.6462 7.88612 12.0531C7.30332 13.4601 7.15084 15.0083 7.44794 16.502C7.74505 17.9957 8.4784 19.3677 9.55527 20.4445C10.6321 21.5214 12.0041 22.2547 13.4978 22.5519C14.9914 22.849 16.5397 22.6965 17.9467 22.1137C19.3536 21.5309 20.5562 20.544 21.4023 19.2777C22.2484 18.0114 22.7 16.5227 22.7 14.9998C22.7 12.9576 21.8887 10.9991 20.4447 9.55508C19.0007 8.11105 17.0422 7.2998 15 7.2998Z" fill="white"/>
<path d="M24.81 6.99997C24.808 7.35512 24.701 7.70174 24.5025 7.99621C24.3039 8.29068 24.0227 8.51984 23.6942 8.65484C23.3657 8.78983 23.0046 8.82464 22.6564 8.75486C22.3082 8.68509 21.9884 8.51386 21.7372 8.26273C21.4861 8.0116 21.3149 7.69179 21.2451 7.34356C21.1753 6.99533 21.2101 6.63424 21.3451 6.30575C21.4801 5.97725 21.7093 5.69603 22.0038 5.49749C22.2982 5.29894 22.6448 5.19195 23 5.18997C23.2381 5.18864 23.474 5.23455 23.6942 5.32505C23.9144 5.41554 24.1145 5.54881 24.2828 5.71715C24.4512 5.88549 24.5844 6.08555 24.6749 6.30575C24.7654 6.52594 24.8113 6.76191 24.81 6.99997Z" fill="white"/>
</svg>
