<svg width="30" height="30" viewBox="0 0 30 30" fill="none" xmlns="http://www.w3.org/2000/svg">
<path fill-rule="evenodd" clip-rule="evenodd" d="M19.6 0H10.4C2 0 0 2 0 10.4V19.6C0 28 2 30 10.4 30H19.6C28 30 30 28 30 19.6V10.4C30 2 28 0 19.6 0ZM24.22 21.4H22C21.17 21.4 20.92 20.75 19.44 19.24C18.15 18 17.57 17.83 17.26 17.83C16.95 17.83 16.69 17.95 16.69 18.57V20.57C16.69 21.1 16.52 21.41 15.12 21.41C13.7697 21.3237 12.4597 20.9156 11.2994 20.2198C10.139 19.5239 9.16204 18.5605 8.45 17.41C5.78 13.57 5 10.71 5 10.12C5 9.8 5.13 9.51 5.74 9.51H8C8.55 9.51 8.76 9.76 9 10.35C10.08 13.47 11.88 16.2 12.62 16.2C12.9 16.2 13.03 16.07 13.03 15.37V12.15C12.94 10.67 12.16 10.54 12.16 10.01C12.1625 9.94081 12.1789 9.87283 12.208 9.81004C12.2372 9.74725 12.2786 9.69092 12.3299 9.64434C12.3811 9.59777 12.4411 9.5619 12.5064 9.53883C12.5717 9.51576 12.6409 9.50596 12.71 9.51H16.14C16.6 9.51 16.77 9.76 16.77 10.31V14.65C16.77 15.12 16.99 15.29 17.11 15.29C17.39 15.29 17.62 15.12 18.11 14.61C19.213 13.2543 20.1186 11.7494 20.8 10.14C20.8785 9.95446 21.0112 9.79696 21.1807 9.68811C21.3502 9.57927 21.5486 9.52416 21.75 9.53H23.93C24.59 9.53 24.74 9.87 24.59 10.33C24.31 11.6 21.64 15.33 21.64 15.33C21.41 15.71 21.33 15.88 21.64 16.33C21.95 16.78 22.64 17.33 23.15 17.9C23.9015 18.645 24.5234 19.5102 24.99 20.46C25.15 21.09 24.83 21.4 24.22 21.4Z" fill="white"/>
</svg>
