<svg width="180" height="180" viewBox="0 0 180 180" fill="none" xmlns="http://www.w3.org/2000/svg">
<g clip-path="url(#clip0)">
<path d="M90 3C107.207 3 124.028 8.10246 138.335 17.6621C152.642 27.2218 163.793 40.8094 170.378 56.7065C176.962 72.6037 178.685 90.0965 175.328 106.973C171.971 123.849 163.685 139.351 151.518 151.518C139.351 163.685 123.849 171.971 106.973 175.328C90.0965 178.685 72.6037 176.962 56.7065 170.378C40.8094 163.793 27.2218 152.642 17.6621 138.335C8.10246 124.028 3 107.207 3 90C3.02647 66.9343 12.201 44.8209 28.5109 28.5109C44.8209 12.201 66.9343 3.02647 90 3ZM90 0C72.1997 0 54.7991 5.27841 39.9987 15.1677C25.1983 25.0571 13.6627 39.1131 6.85084 55.5585C0.0389576 72.0038 -1.74334 90.0998 1.72933 107.558C5.202 125.016 13.7737 141.053 26.3604 153.64C38.9471 166.226 54.9836 174.798 72.4419 178.271C89.9002 181.743 107.996 179.961 124.442 173.149C140.887 166.337 154.943 154.802 164.832 140.001C174.722 125.201 180 107.8 180 90C180 66.1305 170.518 43.2387 153.64 26.3604C136.761 9.48211 113.869 0 90 0V0Z" fill="#888893"/>
<path d="M134 86.34H131V55.7C130.996 55.3958 130.932 55.0953 130.812 54.8159C130.691 54.5365 130.517 54.2836 130.299 54.0717C130.08 53.8599 129.822 53.6932 129.539 53.5814C129.256 53.4696 128.954 53.4147 128.65 53.42H124.65V50.42H128.65C130.059 50.412 131.414 50.9635 132.417 51.9534C133.42 52.9433 133.989 54.2908 134 55.7V86.34Z" fill="#888893"/>
<path d="M101.46 124.18H43.85C42.4425 124.188 41.0892 123.638 40.0864 122.65C39.0837 121.662 38.5132 120.317 38.5 118.91V55.7C38.5106 54.2908 39.0799 52.9433 40.0829 51.9534C41.0859 50.9635 42.4408 50.412 43.85 50.42H47.71V53.42H43.85C43.2364 53.412 42.6446 53.6474 42.2042 54.0747C41.7637 54.502 41.5105 55.0864 41.5 55.7V118.91C41.5131 119.522 41.7675 120.104 42.2076 120.529C42.6478 120.954 43.2381 121.188 43.85 121.18H101.46V124.18Z" fill="#888893"/>
<path d="M82.45 117.31H47.71C47.3122 117.31 46.9306 117.152 46.6493 116.871C46.368 116.589 46.21 116.208 46.21 115.81V49.81C46.21 48.4088 46.766 47.0647 47.7559 46.073C48.7458 45.0812 50.0887 44.5227 51.49 44.52H82.49C83.893 44.52 85.2385 45.0774 86.2306 46.0694C87.2227 47.0615 87.78 48.407 87.78 49.81V112C87.7827 112.7 87.6465 113.393 87.3793 114.04C87.1121 114.687 86.7193 115.274 86.2236 115.768C85.7279 116.262 85.1391 116.652 84.4913 116.917C83.8436 117.182 83.1497 117.315 82.45 117.31ZM49.21 114.31H82.45C82.7528 114.311 83.0528 114.252 83.3326 114.137C83.6123 114.021 83.8662 113.85 84.0794 113.635C84.2926 113.42 84.4608 113.165 84.5742 112.884C84.6876 112.603 84.744 112.303 84.74 112V49.79C84.74 49.4893 84.6808 49.1915 84.5657 48.9137C84.4506 48.6358 84.2819 48.3834 84.0693 48.1707C83.8566 47.9581 83.6042 47.7894 83.3263 47.6743C83.0485 47.5593 82.7507 47.5 82.45 47.5H51.45C50.8444 47.5027 50.2645 47.7451 49.8372 48.1743C49.4099 48.6034 49.17 49.1844 49.17 49.79L49.21 114.31Z" fill="#888893"/>
<path d="M101.46 117.31H89.88C89.1853 117.315 88.4964 117.184 87.8525 116.923C87.2087 116.662 86.6226 116.276 86.1276 115.789C85.6327 115.301 85.2386 114.721 84.9679 114.081C84.6972 113.441 84.5552 112.755 84.55 112.06V49.7499C84.5552 49.0552 84.6972 48.3683 84.9679 47.7285C85.2386 47.0887 85.6327 46.5085 86.1276 46.021C86.6226 45.5335 87.2087 45.1482 87.8525 44.8872C88.4964 44.6263 89.1853 44.4946 89.88 44.4999H120.76C121.455 44.4946 122.144 44.6263 122.787 44.8872C123.431 45.1482 124.017 45.5335 124.512 46.021C125.007 46.5085 125.401 47.0887 125.672 47.7285C125.943 48.3683 126.085 49.0552 126.09 49.7499V85.6199H123.09V49.7499C123.077 49.1434 122.825 48.5666 122.388 48.1452C121.952 47.7238 121.367 47.4919 120.76 47.4999H89.88C89.5793 47.4946 89.2804 47.5486 89.0006 47.6588C88.7207 47.769 88.4653 47.9333 88.2489 48.1422C88.0325 48.3512 87.8595 48.6007 87.7395 48.8766C87.6196 49.1524 87.5552 49.4492 87.55 49.7499V112.06C87.5552 112.361 87.6196 112.657 87.7395 112.933C87.8595 113.209 88.0325 113.459 88.2489 113.668C88.4653 113.877 88.7207 114.041 89.0006 114.151C89.2804 114.261 89.5793 114.315 89.88 114.31H101.46V117.31Z" fill="#888893"/>
<path d="M87.74 111.6H84.74C84.7348 111.304 84.6714 111.013 84.5535 110.742C84.4356 110.471 84.2655 110.226 84.0528 110.021C83.8401 109.815 83.5891 109.654 83.3141 109.546C83.0391 109.438 82.7455 109.385 82.45 109.39H47.71V106.39H82.45C83.8416 106.382 85.1797 106.926 86.1712 107.902C87.1627 108.879 87.7268 110.208 87.74 111.6Z" fill="#888893"/>
<path d="M87.74 111.6H84.74C84.7532 110.214 85.3132 108.888 86.2982 107.913C87.2832 106.937 88.6136 106.39 90 106.39H101.43V109.39H90C89.4084 109.387 88.8395 109.618 88.4165 110.031C87.9936 110.445 87.7505 111.008 87.74 111.6Z" fill="#888893"/>
<path d="M68 78.91C67.7702 78.9123 67.5431 78.8611 67.3365 78.7605C67.13 78.6598 66.9497 78.5124 66.81 78.33L61.07 70.8L55 78.27C54.8019 78.5082 54.5362 78.6807 54.2381 78.7646C53.9399 78.8485 53.6232 78.8399 53.33 78.74C53.0382 78.6338 52.786 78.4408 52.6072 78.1869C52.4284 77.933 52.3317 77.6305 52.33 77.32V46C52.33 45.6022 52.488 45.2206 52.7693 44.9393C53.0506 44.658 53.4322 44.5 53.83 44.5C54.2278 44.5 54.6094 44.658 54.8907 44.9393C55.172 45.2206 55.33 45.6022 55.33 46V73.09L59.93 67.43C60.0686 67.2509 60.248 67.1075 60.4533 67.0118C60.6585 66.9161 60.8837 66.8709 61.11 66.88C61.3363 66.8815 61.5592 66.9345 61.7619 67.035C61.9646 67.1355 62.1418 67.2808 62.28 67.46L66.54 73V46C66.54 45.6022 66.698 45.2206 66.9793 44.9393C67.2606 44.658 67.6422 44.5 68.04 44.5C68.4378 44.5 68.8194 44.658 69.1007 44.9393C69.382 45.2206 69.54 45.6022 69.54 46V77.41C69.5427 77.7215 69.4477 78.0261 69.2683 78.2808C69.0889 78.5355 68.8342 78.7276 68.54 78.83C68.3674 78.8934 68.1836 78.9207 68 78.91Z" fill="#888893"/>
<path d="M91.16 114.31H81.13V117.31H91.16V114.31Z" fill="#888893"/>
<path d="M128.44 147.5H113C109.583 147.5 106.304 146.155 103.871 143.756C101.438 141.357 100.047 138.097 100 134.68V111.82C100 111.422 100.158 111.041 100.439 110.759C100.721 110.478 101.102 110.32 101.5 110.32H140C140.398 110.32 140.779 110.478 141.061 110.759C141.342 111.041 141.5 111.422 141.5 111.82V134.68C141.453 138.107 140.054 141.377 137.608 143.777C135.162 146.178 131.867 147.516 128.44 147.5ZM103 113.32V134.68C103.047 137.301 104.122 139.798 105.992 141.635C107.862 143.472 110.379 144.5 113 144.5H128.41C131.042 144.516 133.574 143.494 135.457 141.656C137.34 139.818 138.423 137.311 138.47 134.68V113.32H103Z" fill="#888893"/>
<path d="M140 113.32H101.46C101.063 113.317 100.683 113.158 100.402 112.878C100.121 112.597 99.9626 112.217 99.96 111.82V96.9399C100.007 93.5165 101.403 90.2499 103.845 87.8496C106.286 85.4493 109.576 84.1091 113 84.1199H128.41C131.842 84.0959 135.145 85.4302 137.597 87.832C140.05 90.2337 141.453 93.5078 141.5 96.9399V111.82C141.5 112.218 141.342 112.599 141.061 112.881C140.779 113.162 140.398 113.32 140 113.32ZM122.33 110.32H138.5V96.9399C138.453 94.3087 137.37 91.8021 135.487 89.9638C133.604 88.1256 131.072 87.1037 128.44 87.1199H122.33V110.32ZM102.96 110.32H119.33V87.1199H113C110.379 87.1195 107.862 88.1483 105.992 89.985C104.122 91.8216 103.047 94.3191 103 96.9399L102.96 110.32Z" fill="#888893"/>
</g>
<defs>
<clipPath id="clip0">
<rect width="180" height="180" fill="white"/>
</clipPath>
</defs>
</svg>
