<svg width="180" height="180" viewBox="0 0 180 180" fill="none" xmlns="http://www.w3.org/2000/svg">
<g clip-path="url(#clip0)">
<path d="M90 3C107.207 3 124.028 8.10246 138.335 17.6621C152.642 27.2218 163.793 40.8094 170.378 56.7065C176.962 72.6037 178.685 90.0965 175.328 106.973C171.971 123.849 163.685 139.351 151.518 151.518C139.351 163.685 123.849 171.971 106.973 175.328C90.0965 178.685 72.6037 176.962 56.7066 170.378C40.8094 163.793 27.2218 152.642 17.6622 138.335C8.10247 124.028 3.00001 107.207 3.00001 90C3.02648 66.9343 12.201 44.8209 28.511 28.5109C44.8209 12.201 66.9343 3.02647 90 3ZM90 0C72.1997 0 54.7991 5.27841 39.9987 15.1677C25.1983 25.0571 13.6627 39.1131 6.85085 55.5585C0.0389652 72.0038 -1.74334 90.0998 1.72933 107.558C5.202 125.016 13.7737 141.053 26.3604 153.64C38.9471 166.226 54.9836 174.798 72.4419 178.271C89.9002 181.743 107.996 179.961 124.442 173.149C140.887 166.337 154.943 154.802 164.832 140.001C174.722 125.201 180 107.8 180 90C180 66.1305 170.518 43.2387 153.64 26.3604C136.761 9.48211 113.869 0 90 0V0Z" fill="#888893"/>
<path d="M135.49 129H44.49C42.9142 129 41.4015 128.38 40.2789 127.275C39.1562 126.169 38.5136 124.666 38.49 123.09V117.36H141.49V123.09C141.466 124.666 140.824 126.169 139.701 127.275C138.578 128.38 137.066 129 135.49 129ZM41.49 120.36V123.09C41.5134 123.87 41.8398 124.61 42.3999 125.153C42.96 125.697 43.7097 126 44.49 126H135.49C136.27 126 137.02 125.697 137.58 125.153C138.14 124.61 138.467 123.87 138.49 123.09V120.36H41.49Z" fill="#888893"/>
<path d="M141.5 120.36H38.5V63.71C38.5236 62.1344 39.1662 60.6313 40.2889 59.5255C41.4115 58.4196 42.9242 57.7999 44.5 57.8H135.5C137.076 57.7999 138.588 58.4196 139.711 59.5255C140.834 60.6313 141.476 62.1344 141.5 63.71V120.36ZM102.08 117.36H138.5V77.1H107.09C109.695 79.4025 111.781 82.2313 113.212 85.3996C114.643 88.5679 115.385 92.0037 115.39 95.4801C115.368 99.992 114.117 104.413 111.772 108.268C109.427 112.122 106.077 115.266 102.08 117.36ZM90 117.36C102.35 117.36 112.39 107.54 112.39 95.4801C112.39 83.4201 102.35 73.6101 90 73.6101C77.65 73.6101 67.61 83.4201 67.61 95.4801C67.61 107.54 77.65 117.36 90 117.36ZM41.5 117.36H77.92C73.9234 115.266 70.5728 112.122 68.2279 108.268C65.8829 104.413 64.6322 99.992 64.61 95.4801C64.6151 92.0037 65.3575 88.5679 66.7882 85.3996C68.2189 82.2313 70.3055 79.4025 72.91 77.1H62C61.649 78.3112 60.9142 79.3756 59.906 80.1331C58.8979 80.8905 57.671 81.3001 56.41 81.3001C55.149 81.3001 53.9221 80.8905 52.914 80.1331C51.9059 79.3756 51.171 78.3112 50.82 77.1H41.5V117.36ZM53.58 75.6C53.5621 76.1553 53.7103 76.7033 54.0058 77.1738C54.3013 77.6443 54.7305 78.0159 55.2385 78.2409C55.7464 78.466 56.31 78.5342 56.857 78.437C57.404 78.3397 57.9095 78.0813 58.3088 77.695C58.708 77.3086 58.9828 76.8118 59.098 76.2683C59.2131 75.7248 59.1634 75.1593 58.9551 74.6442C58.7468 74.1291 58.3895 73.688 57.929 73.3772C57.4684 73.0665 56.9256 72.9003 56.37 72.9001C55.6423 72.8893 54.9401 73.1675 54.4171 73.6736C53.8942 74.1797 53.5932 74.8724 53.58 75.6ZM103 74.1H138.5V63.71C138.477 62.9301 138.15 62.19 137.59 61.6467C137.03 61.1034 136.28 60.7997 135.5 60.8H44.5C43.7197 60.7997 42.97 61.1034 42.4099 61.6467C41.8498 62.19 41.5234 62.9301 41.5 63.71V74.1H50.78C51.119 72.8724 51.8514 71.7899 52.8647 71.0185C53.878 70.2471 55.1164 69.8293 56.39 69.8293C57.6636 69.8293 58.902 70.2471 59.9153 71.0185C60.9286 71.7899 61.661 72.8724 62 74.1H77C80.9367 71.8143 85.4078 70.6103 89.96 70.6103C94.5122 70.6103 98.9833 71.8143 102.92 74.1H103Z" fill="#888893"/>
<path d="M69.71 60.6H46.47V56.9C46.4962 55.3261 47.1399 53.8255 48.2623 52.7219C49.3847 51.6182 50.8959 50.9998 52.47 51H63.71C65.2841 50.9998 66.7953 51.6182 67.9177 52.7219C69.0401 53.8255 69.6838 55.3261 69.71 56.9V60.6ZM49.47 57.6H66.71V56.9C66.684 56.1218 66.3566 55.3842 65.7967 54.843C65.2369 54.3019 64.4886 53.9996 63.71 54H52.47C51.6914 53.9996 50.9431 54.3019 50.3833 54.843C49.8234 55.3842 49.496 56.1218 49.47 56.9V57.6Z" fill="#888893"/>
<path d="M132.69 60.6H117.53V56.91C117.554 55.3343 118.196 53.8312 119.319 52.7254C120.442 51.6196 121.954 50.9998 123.53 51H126.69C128.266 50.9998 129.778 51.6196 130.901 52.7254C132.024 53.8312 132.666 55.3343 132.69 56.91V60.6ZM120.53 57.6H129.69V56.91C129.667 56.1301 129.34 55.3899 128.78 54.8466C128.22 54.3033 127.47 53.9996 126.69 54H123.53C122.75 53.9996 122 54.3033 121.44 54.8466C120.88 55.3899 120.553 56.1301 120.53 56.91V57.6Z" fill="#888893"/>
<path d="M90 120.36C76 120.36 64.61 109.2 64.61 95.48C64.61 81.76 76 70.61 90 70.61C104 70.61 115.39 81.77 115.39 95.48C115.39 109.19 104 120.36 90 120.36ZM90 73.61C77.65 73.61 67.61 83.42 67.61 95.48C67.61 107.54 77.61 117.36 90 117.36C102.39 117.36 112.39 107.54 112.39 95.48C112.39 83.42 102.35 73.61 90 73.61ZM90 112.38C86.6728 112.313 83.4394 111.265 80.7053 109.368C77.9712 107.471 75.8581 104.809 74.6309 101.715C73.4038 98.6219 73.1172 95.235 73.8072 91.9795C74.4972 88.7239 76.133 85.7445 78.5095 83.4149C80.886 81.0853 83.8973 79.5091 87.166 78.8841C90.4347 78.2591 93.8151 78.6131 96.8834 79.9016C99.9517 81.1901 102.571 83.3558 104.414 86.1271C106.256 88.8985 107.239 92.1521 107.24 95.48C107.19 100.006 105.347 104.327 102.115 107.495C98.8825 110.663 94.5257 112.42 90 112.38ZM90 81.58C87.2663 81.6469 84.6131 82.5186 82.3724 84.086C80.1317 85.6535 78.4031 87.847 77.403 90.3921C76.4029 92.9371 76.1757 95.7206 76.7498 98.3942C77.3239 101.068 78.6739 103.513 80.6307 105.423C82.5875 107.333 85.0642 108.623 87.7509 109.133C90.4375 109.642 93.2147 109.348 95.7348 108.286C98.255 107.225 100.406 105.444 101.919 103.166C103.432 100.888 104.239 98.2145 104.24 95.48C104.19 91.75 102.663 88.1921 99.9933 85.5864C97.3239 82.9807 93.7301 81.5399 90 81.58Z" fill="#888893"/>
<path d="M90 112.38C86.6728 112.313 83.4394 111.265 80.7053 109.368C77.9712 107.471 75.8581 104.809 74.6309 101.715C73.4038 98.6218 73.1173 95.235 73.8072 91.9794C74.4972 88.7239 76.133 85.7445 78.5095 83.4149C80.886 81.0852 83.8974 79.5091 87.166 78.8841C90.4347 78.2591 93.8151 78.613 96.8834 79.9016C99.9518 81.1901 102.571 83.3558 104.414 86.1271C106.256 88.8985 107.239 92.1521 107.24 95.48C107.19 100.006 105.347 104.327 102.115 107.495C98.8826 110.663 94.5257 112.42 90 112.38ZM90 81.58C87.2663 81.6469 84.6131 82.5186 82.3724 84.086C80.1317 85.6535 78.4032 87.847 77.403 90.392C76.4029 92.9371 76.1757 95.7206 76.7498 98.3941C77.3239 101.068 78.6739 103.513 80.6307 105.423C82.5875 107.333 85.0642 108.623 87.7509 109.133C90.4375 109.642 93.2147 109.347 95.7349 108.286C98.255 107.225 100.406 105.444 101.919 103.166C103.432 100.888 104.239 98.2145 104.24 95.48C104.19 91.75 102.663 88.1921 99.9933 85.5864C97.3239 82.9807 93.7301 81.5399 90 81.58ZM97.87 97C97.4722 97 97.0907 96.8419 96.8093 96.5606C96.528 96.2793 96.37 95.8978 96.37 95.5C96.3609 94.6731 96.1888 93.8561 95.8636 93.0958C95.5384 92.3355 95.0664 91.6468 94.4748 91.0691C93.8831 90.4914 93.1834 90.036 92.4155 89.729C91.6477 89.422 90.8269 89.2694 90 89.28C89.6022 89.28 89.2206 89.1219 88.9393 88.8406C88.658 88.5593 88.5 88.1778 88.5 87.78C88.5 87.3821 88.658 87.0006 88.9393 86.7193C89.2206 86.438 89.6022 86.28 90 86.28C92.4614 86.2613 94.8298 87.2192 96.5862 88.9437C98.3425 90.6682 99.3436 93.0187 99.37 95.48C99.3727 95.6786 99.3358 95.8758 99.2616 96.0601C99.1874 96.2444 99.0774 96.4122 98.9378 96.5536C98.7983 96.695 98.632 96.8073 98.4487 96.8839C98.2654 96.9605 98.0687 97 97.87 97Z" fill="#888893"/>
<path d="M56.37 81.3001C55.2467 81.2823 54.1536 80.933 53.2282 80.296C52.3027 79.659 51.5862 78.7627 51.1685 77.7197C50.7509 76.6767 50.6507 75.5336 50.8807 74.4339C51.1107 73.3342 51.6606 72.327 52.4612 71.5388C53.2618 70.7506 54.2775 70.2166 55.3807 70.0039C56.4839 69.7911 57.6253 69.9092 58.6616 70.3431C59.6979 70.777 60.5828 71.5075 61.2053 72.4429C61.8277 73.3782 62.1599 74.4766 62.16 75.6C62.1442 77.1225 61.5262 78.5767 60.4412 79.6448C59.3562 80.713 57.8925 81.3081 56.37 81.3001ZM56.37 72.9001C55.8402 72.9177 55.3273 73.091 54.8953 73.3982C54.4633 73.7054 54.1312 74.133 53.9406 74.6276C53.75 75.1223 53.7092 75.6621 53.8233 76.1798C53.9374 76.6975 54.2014 77.1701 54.5824 77.5388C54.9633 77.9074 55.4443 78.1558 55.9655 78.2529C56.4866 78.35 57.0248 78.2915 57.513 78.0848C58.0011 77.878 58.4176 77.5322 58.7105 77.0903C59.0034 76.6485 59.1597 76.1302 59.16 75.6C59.1469 74.8724 58.8458 74.1797 58.3229 73.6736C57.7999 73.1675 57.0977 72.8893 56.37 72.9001Z" fill="#888893"/>
</g>
<defs>
<clipPath id="clip0">
<rect width="180" height="180" fill="white"/>
</clipPath>
</defs>
</svg>
