<svg width="180" height="180" viewBox="0 0 180 180" fill="none" xmlns="http://www.w3.org/2000/svg">
<g clip-path="url(#clip0)">
<path d="M90 3C107.207 3 124.028 8.10246 138.335 17.6621C152.642 27.2218 163.793 40.8094 170.378 56.7065C176.962 72.6037 178.685 90.0965 175.328 106.973C171.971 123.849 163.685 139.351 151.518 151.518C139.351 163.685 123.849 171.971 106.973 175.328C90.0965 178.685 72.6037 176.962 56.7065 170.378C40.8094 163.793 27.2218 152.642 17.6621 138.335C8.10246 124.028 2.99999 107.207 2.99999 90C3.02646 66.9343 12.201 44.8209 28.5109 28.5109C44.8209 12.201 66.9343 3.02647 90 3ZM90 0C72.1997 0 54.7991 5.27841 39.9987 15.1677C25.1983 25.0571 13.6627 39.1131 6.85084 55.5585C0.03895 72.0038 -1.74335 90.0998 1.72932 107.558C5.20199 125.016 13.7737 141.053 26.3604 153.64C38.9471 166.226 54.9836 174.798 72.4419 178.271C89.9002 181.743 107.996 179.961 124.441 173.149C140.887 166.337 154.943 154.802 164.832 140.001C174.722 125.201 180 107.8 180 90C180 66.1305 170.518 43.2387 153.64 26.3604C136.761 9.48211 113.869 0 90 0V0Z" fill="#888893"/>
<path d="M90.0222 136.909H41.5V121.957C41.5026 119.602 42.4394 117.343 44.105 115.678C45.7706 114.012 48.029 113.075 50.3845 113.073H81.1377C83.4932 113.075 85.7516 114.012 87.4172 115.678C89.0828 117.343 90.0196 119.602 90.0222 121.957V136.909ZM44.394 134.015H87.1282V121.957C87.1257 120.369 86.4937 118.847 85.3708 117.724C84.2479 116.601 82.7257 115.969 81.1377 115.967H50.3845C48.7965 115.969 47.2743 116.601 46.1514 117.724C45.0285 118.847 44.3965 120.369 44.394 121.957V134.015Z" fill="#888893"/>
<path d="M140.86 136.909H99.7073V121.33C99.7099 119.141 100.581 117.042 102.129 115.494C103.677 113.946 105.776 113.075 107.965 113.073H132.602C134.791 113.075 136.89 113.946 138.438 115.494C139.986 117.042 140.857 119.141 140.86 121.33V136.909ZM102.601 134.015H137.966V121.33C137.966 119.908 137.401 118.544 136.395 117.538C135.389 116.532 134.025 115.967 132.602 115.967H107.965C106.543 115.969 105.18 116.535 104.175 117.54C103.17 118.546 102.604 119.909 102.601 121.33V134.015Z" fill="#888893"/>
<path d="M128.261 115.967H112.306C110.945 115.964 109.642 115.423 108.68 114.461C107.718 113.499 107.176 112.195 107.174 110.835V97.8409C107.176 94.8969 108.347 92.0742 110.429 89.9925C112.51 87.9108 115.333 86.7402 118.277 86.7377H122.29C125.234 86.7402 128.057 87.9108 130.138 89.9925C132.22 92.0742 133.391 94.8969 133.393 97.8409V110.883C133.378 112.235 132.831 113.526 131.87 114.478C130.91 115.429 129.613 115.964 128.261 115.967ZM118.277 89.5834C116.101 89.586 114.014 90.4517 112.475 91.9907C110.936 93.5296 110.07 95.6162 110.068 97.7926V110.835C110.068 111.428 110.304 111.998 110.723 112.417C111.143 112.837 111.712 113.073 112.306 113.073H128.261C128.855 113.073 129.424 112.837 129.844 112.417C130.263 111.998 130.499 111.428 130.499 110.835V97.8409C130.497 95.6644 129.631 93.5779 128.092 92.0389C126.553 90.4999 124.466 89.6342 122.29 89.6316L118.277 89.5834Z" fill="#888893"/>
<path d="M69.832 115.967H61.6903C59.3373 115.964 57.0814 115.028 55.4176 113.364C53.7538 111.701 52.818 109.445 52.8154 107.092V86.6411H69.832C72.1858 86.6462 74.4416 87.5842 76.1052 89.2495C77.7687 90.9149 78.7042 93.1717 78.7068 95.5256V107.101C78.7017 109.453 77.7647 111.706 76.1012 113.368C74.4377 115.03 72.1833 115.964 69.832 115.967ZM55.7094 89.5351V107.092C55.7119 108.677 56.3429 110.197 57.464 111.318C58.585 112.439 60.1048 113.07 61.6903 113.073H69.832C71.4174 113.07 72.9372 112.439 74.0582 111.318C75.1793 110.197 75.8103 108.677 75.8128 107.092V95.5159C75.8128 93.9288 75.183 92.4066 74.0616 91.2834C72.9403 90.1603 71.4191 89.528 69.832 89.5254L55.7094 89.5351Z" fill="#888893"/>
<path d="M77.2598 100.783H61.8253C59.4746 100.814 57.2072 99.9129 55.5189 98.277C53.8305 96.6411 52.8586 94.4033 52.8154 92.0527V88.088H55.7094V92.0527C55.7448 93.6408 56.4086 95.15 57.555 96.2495C58.7015 97.3489 60.2371 97.9489 61.8253 97.9179H77.2598V100.783Z" fill="#888893"/>
<path d="M65.7611 124.243L56.7705 115.562L58.777 113.478L65.7611 120.221L72.7452 113.478L74.7517 115.562L65.7611 124.243Z" fill="#888893"/>
<path d="M126.872 85.3003V82.4063C128.44 82.4373 129.956 81.8455 131.088 80.7605C132.22 79.6755 132.875 78.186 132.911 76.6184V55.8204C132.875 54.2528 132.22 52.7632 131.088 51.6782C129.956 50.5932 128.44 50.0014 126.872 50.0324H96.2442C94.6765 50.0014 93.1605 50.5932 92.0285 51.6782C90.8965 52.7632 90.2409 54.2528 90.2055 55.8204V76.6184C90.2409 78.186 90.8965 79.6755 92.0285 80.7605C93.1605 81.8455 94.6765 82.4373 96.2442 82.4063H120.283V85.3003H96.2442C93.9107 85.3286 91.6612 84.4307 89.9885 82.8033C88.3159 81.1759 87.3567 78.9518 87.3212 76.6184V55.8204C87.3567 53.4853 88.3173 51.2597 89.992 49.632C91.6667 48.0043 93.9187 47.1075 96.2539 47.1385H126.872C129.207 47.1075 131.459 48.0043 133.134 49.632C134.809 51.2597 135.769 53.4853 135.805 55.8204V76.6184C135.769 78.9535 134.809 81.1791 133.134 82.8067C131.459 84.4344 129.207 85.3312 126.872 85.3003Z" fill="#888893"/>
<path d="M126.872 90.4901C126.542 90.4904 126.222 90.3781 125.965 90.1717L119.435 84.953C119.274 84.8388 119.139 84.6932 119.037 84.525C118.935 84.3567 118.868 84.1695 118.841 83.9746C118.814 83.7798 118.827 83.5814 118.879 83.3916C118.931 83.2019 119.021 83.0247 119.144 82.871C119.266 82.7173 119.419 82.5903 119.593 82.4977C119.767 82.4051 119.957 82.3489 120.153 82.3324C120.349 82.316 120.547 82.3398 120.733 82.4022C120.92 82.4647 121.092 82.5645 121.238 82.6957L125.425 86.043V83.8243C125.425 83.6343 125.462 83.4461 125.535 83.2706C125.608 83.095 125.715 82.9355 125.849 82.8011C125.983 82.6668 126.143 82.5602 126.318 82.4875C126.494 82.4148 126.682 82.3773 126.872 82.3773C127.062 82.3773 127.25 82.4148 127.426 82.4875C127.601 82.5602 127.761 82.6668 127.895 82.8011C128.03 82.9355 128.136 83.095 128.209 83.2706C128.282 83.4461 128.319 83.6343 128.319 83.8243V89.0431C128.317 89.4261 128.163 89.7927 127.892 90.0635C127.622 90.3343 127.255 90.4875 126.872 90.4901Z" fill="#888893"/>
<path d="M113.28 60.0649C114.058 60.0649 114.688 59.456 114.688 58.7048C114.688 57.9536 114.058 57.3446 113.28 57.3446C112.502 57.3446 111.872 57.9536 111.872 58.7048C111.872 59.456 112.502 60.0649 113.28 60.0649Z" fill="#888893"/>
<path d="M88.7585 41.7172C89.5363 41.7172 90.1669 41.1082 90.1669 40.357C90.1669 39.6058 89.5363 38.9968 88.7585 38.9968C87.9807 38.9968 87.3501 39.6058 87.3501 40.357C87.3501 41.1082 87.9807 41.7172 88.7585 41.7172Z" fill="#888893"/>
<path d="M134.31 60.1324H119.676C119.292 60.1324 118.924 59.9799 118.653 59.7086C118.381 59.4372 118.229 59.0692 118.229 58.6854C118.229 58.3016 118.381 57.9336 118.653 57.6622C118.924 57.3909 119.292 57.2384 119.676 57.2384H134.31C134.693 57.2384 135.061 57.3909 135.333 57.6622C135.604 57.9336 135.757 58.3016 135.757 58.6854C135.757 59.0692 135.604 59.4372 135.333 59.7086C135.061 59.9799 134.693 60.1324 134.31 60.1324Z" fill="#888893"/>
<path d="M58.4297 77.0526C56.0953 77.0809 53.8447 76.1833 52.1706 74.5562C50.4964 72.9291 49.5351 70.7049 49.497 68.3707V47.592C49.5351 45.2577 50.4964 43.0336 52.1706 41.4064C53.8447 39.7793 56.0953 38.8817 58.4297 38.9101H83.0092C83.3929 38.9101 83.761 39.0625 84.0323 39.3339C84.3037 39.6052 84.4561 39.9733 84.4561 40.3571C84.4561 40.7408 84.3037 41.1089 84.0323 41.3802C83.761 41.6516 83.3929 41.804 83.0092 41.804H58.4297C56.862 41.773 55.346 42.3648 54.214 43.4498C53.082 44.5348 52.4264 46.0244 52.391 47.592V68.3707C52.4289 69.9374 53.0853 71.4255 54.2167 72.51C55.3482 73.5944 56.8628 74.1871 58.4297 74.1586C58.8135 74.1586 59.1815 74.3111 59.4529 74.5824C59.7243 74.8538 59.8767 75.2218 59.8767 75.6056C59.8767 75.9893 59.7243 76.3574 59.4529 76.6288C59.1815 76.9001 58.8135 77.0526 58.4297 77.0526Z" fill="#888893"/>
<path d="M80.1538 77.0524H64.9701C64.5863 77.0524 64.2183 76.9 63.9469 76.6286C63.6756 76.3572 63.5231 75.9892 63.5231 75.6054C63.5231 75.2217 63.6756 74.8536 63.9469 74.5823C64.2183 74.3109 64.5863 74.1584 64.9701 74.1584H80.1538C80.5375 74.1584 80.9056 74.3109 81.1769 74.5823C81.4483 74.8536 81.6008 75.2217 81.6008 75.6054C81.6008 75.9892 81.4483 76.3572 81.1769 76.6286C80.9056 76.9 80.5375 77.0524 80.1538 77.0524Z" fill="#888893"/>
<path d="M58.4297 82.2713C58.0467 82.2688 57.6802 82.1156 57.4093 81.8447C57.1385 81.5739 56.9853 81.2073 56.9827 80.8244V75.6538C56.9827 75.27 57.1352 74.902 57.4065 74.6306C57.6779 74.3593 58.046 74.2068 58.4297 74.2068C58.8135 74.2068 59.1815 74.3593 59.4529 74.6306C59.7243 74.902 59.8767 75.27 59.8767 75.6538V77.8629L64.073 74.5155C64.3736 74.2763 64.7569 74.1663 65.1386 74.2097C65.5203 74.2531 65.8692 74.4464 66.1084 74.747C66.3476 75.0476 66.4576 75.431 66.4142 75.8127C66.3708 76.1944 66.1775 76.5432 65.8769 76.7825L59.3461 81.953C59.0872 82.1628 58.763 82.2755 58.4297 82.2713Z" fill="#888893"/>
</g>
<defs>
<clipPath id="clip0">
<rect width="180" height="180" fill="white"/>
</clipPath>
</defs>
</svg>
