<svg width="180" height="180" viewBox="0 0 180 180" fill="none" xmlns="http://www.w3.org/2000/svg">
<g clip-path="url(#clip0)">
<path d="M90 3C107.207 3 124.028 8.10246 138.335 17.6621C152.642 27.2218 163.793 40.8094 170.378 56.7065C176.962 72.6037 178.685 90.0965 175.328 106.973C171.971 123.849 163.685 139.351 151.518 151.518C139.351 163.685 123.849 171.971 106.973 175.328C90.0965 178.685 72.6037 176.962 56.7066 170.378C40.8094 163.793 27.2218 152.642 17.6622 138.335C8.10247 124.028 3.00001 107.207 3.00001 90C3.02648 66.9343 12.201 44.8209 28.511 28.5109C44.8209 12.201 66.9343 3.02647 90 3ZM90 0C72.1997 0 54.7991 5.27841 39.9987 15.1677C25.1983 25.0571 13.6627 39.1131 6.85085 55.5585C0.0389652 72.0038 -1.74334 90.0998 1.72933 107.558C5.202 125.016 13.7737 141.053 26.3604 153.64C38.9471 166.226 54.9836 174.798 72.4419 178.271C89.9002 181.743 107.996 179.961 124.442 173.149C140.887 166.337 154.943 154.802 164.832 140.001C174.722 125.201 180 107.8 180 90C180 66.1305 170.518 43.2387 153.64 26.3604C136.761 9.48211 113.869 0 90 0V0Z" fill="#888893"/>
<path d="M136.17 114.7H43.83C42.4128 114.695 41.0557 114.127 40.0564 113.122C39.0571 112.117 38.4974 110.757 38.5 109.34V97.9399H141.5V109.34C141.503 110.757 140.943 112.117 139.944 113.122C138.944 114.127 137.587 114.695 136.17 114.7ZM41.5 100.94V109.34C41.4973 109.961 41.741 110.559 42.1777 111.001C42.6144 111.443 43.2085 111.695 43.83 111.7H136.17C136.792 111.695 137.386 111.443 137.822 111.001C138.259 110.559 138.503 109.961 138.5 109.34V100.94H41.5Z" fill="#888893"/>
<path d="M140 100.94H40C39.6022 100.94 39.2207 100.782 38.9393 100.501C38.658 100.219 38.5 99.8378 38.5 99.44V49.86C38.4974 48.4428 39.0571 47.0825 40.0564 46.0776C41.0557 45.0727 42.4128 44.5053 43.83 44.5H136.17C137.587 44.5053 138.944 45.0727 139.944 46.0776C140.943 47.0825 141.503 48.4428 141.5 49.86V99.44C141.5 99.637 141.461 99.832 141.386 100.014C141.31 100.196 141.2 100.361 141.061 100.501C140.921 100.64 140.756 100.75 140.574 100.826C140.392 100.901 140.197 100.94 140 100.94ZM41.5 97.94H138.5V49.86C138.503 49.2385 138.259 48.6412 137.822 48.1989C137.386 47.7566 136.792 47.5053 136.17 47.5H43.83C43.2085 47.5053 42.6144 47.7566 42.1777 48.1989C41.741 48.6412 41.4973 49.2385 41.5 49.86V97.94ZM101.5 88.58C101.302 88.5802 101.106 88.5404 100.924 88.4631C100.742 88.3858 100.577 88.2725 100.44 88.13L95.44 83.07L91.76 86.77C91.5765 86.9569 91.3469 87.0921 91.0944 87.162C90.842 87.2318 90.5755 87.2339 90.322 87.168C90.0685 87.1021 89.8368 86.9705 89.6504 86.7865C89.4639 86.6025 89.3293 86.3726 89.26 86.12L83.87 67C83.7956 66.7429 83.7914 66.4705 83.8577 66.2112C83.9241 65.9519 84.0587 65.7151 84.2474 65.5253C84.4362 65.3356 84.6723 65.1998 84.9312 65.132C85.1901 65.0642 85.4625 65.067 85.72 65.14L104.66 70.6C104.911 70.6718 105.138 70.8078 105.32 70.9945C105.503 71.1812 105.633 71.4121 105.698 71.6645C105.764 71.9169 105.763 72.182 105.695 72.4338C105.627 72.6855 105.494 72.9151 105.31 73.1L101.63 76.81L106.63 81.89C106.908 82.1708 107.064 82.5499 107.064 82.945C107.064 83.3401 106.908 83.7192 106.63 84L102.57 88.09C102.439 88.2353 102.28 88.3534 102.104 88.4375C101.927 88.5215 101.735 88.57 101.54 88.58H101.5ZM95.42 79.44C95.6179 79.4398 95.8138 79.4796 95.9959 79.5569C96.178 79.6342 96.3427 79.7475 96.48 79.89L101.48 84.95L103.43 82.95L98.43 77.87C98.1515 77.5875 97.9954 77.2067 97.9954 76.81C97.9954 76.4133 98.1515 76.0325 98.43 75.75L101.43 72.75L87.52 68.75L91.52 82.75L94.45 79.75C94.7375 79.5268 95.0968 79.4165 95.46 79.44H95.42ZM76.73 78.77C76.3338 78.7648 75.9553 78.6051 75.6751 78.3249C75.3949 78.0447 75.2352 77.6662 75.23 77.27C75.2314 76.8725 75.3895 76.4917 75.67 76.21L80.55 71.29C80.7598 71.0805 81.0269 70.9378 81.3177 70.8801C81.6085 70.8223 81.9099 70.852 82.1839 70.9654C82.4578 71.0788 82.6919 71.2709 82.8568 71.5173C83.0216 71.7638 83.1097 72.0535 83.11 72.35C83.1102 72.7458 82.9559 73.1261 82.68 73.41L77.8 78.32C77.528 78.5978 77.1587 78.7592 76.77 78.77H76.73ZM78.24 69.19H72.84C72.4422 69.19 72.0607 69.032 71.7794 68.7507C71.498 68.4694 71.34 68.0878 71.34 67.69C71.34 67.2922 71.498 66.9106 71.7794 66.6293C72.0607 66.348 72.4422 66.19 72.84 66.19H78.24C78.6378 66.19 79.0194 66.348 79.3007 66.6293C79.582 66.9106 79.74 67.2922 79.74 67.69C79.74 68.0878 79.582 68.4694 79.3007 68.7507C79.0194 69.032 78.6378 69.19 78.24 69.19ZM91 64.47C90.7945 64.4696 90.5912 64.4277 90.4022 64.347C90.2132 64.2662 90.0424 64.1482 89.9 64C89.6191 63.7188 89.4613 63.3375 89.4613 62.94C89.4613 62.5425 89.6191 62.1613 89.9 61.88L94.77 57C94.9067 56.8521 95.0717 56.7331 95.2553 56.6503C95.4389 56.5676 95.6373 56.5226 95.8386 56.5181C96.04 56.5136 96.2402 56.5498 96.4272 56.6243C96.6143 56.6989 96.7845 56.8104 96.9276 56.9521C97.0706 57.0938 97.1837 57.2629 97.26 57.4493C97.3364 57.6357 97.3744 57.8355 97.3718 58.0369C97.3692 58.2383 97.3261 58.4371 97.2451 58.6214C97.164 58.8058 97.0467 58.972 96.9 59.11L92 64C91.7392 64.279 91.3813 64.4473 91 64.47ZM79.77 62.54C79.3941 62.5289 79.0366 62.3752 78.77 62.11L75.77 59.22C75.4891 58.9388 75.3313 58.5575 75.3313 58.16C75.3313 57.7625 75.4891 57.3812 75.77 57.1C76.0525 56.8215 76.4333 56.6654 76.83 56.6654C77.2267 56.6654 77.6075 56.8215 77.89 57.1L80.89 60C81.0996 60.2056 81.2443 60.4682 81.3061 60.7552C81.3678 61.0423 81.344 61.3411 81.2375 61.6148C81.1311 61.8884 80.9466 62.1248 80.7071 62.2946C80.4676 62.4644 80.1835 62.5601 79.89 62.57L79.77 62.54ZM86.37 61.09C85.9722 61.09 85.5907 60.932 85.3093 60.6507C85.028 60.3694 84.87 59.9878 84.87 59.59V54.1C84.87 53.7022 85.028 53.3206 85.3093 53.0393C85.5907 52.758 85.9722 52.6 86.37 52.6C86.7678 52.6 87.1494 52.758 87.4307 53.0393C87.712 53.3206 87.87 53.7022 87.87 54.1V59.59C87.87 59.9878 87.712 60.3694 87.4307 60.6507C87.1494 60.932 86.7678 61.09 86.37 61.09Z" fill="#888893"/>
<path d="M125.49 137.5H54.49C54.0638 137.5 53.6547 137.332 53.3515 137.033C53.0483 136.733 52.8753 136.326 52.87 135.9V133.1C52.87 129.62 56.07 126.79 59.99 126.79H119.99C123.91 126.79 127.11 129.62 127.11 133.1V135.9C127.105 136.326 126.932 136.733 126.628 137.033C126.325 137.332 125.916 137.5 125.49 137.5ZM55.89 134.5H124.11V133.1C124.11 131.27 122.26 129.79 119.99 129.79H60C57.73 129.79 55.88 131.27 55.88 133.1L55.89 134.5Z" fill="#888893"/>
<path d="M103.21 129.79H76.78V111.7H103.21V129.79ZM79.78 126.79H100.21V114.7H79.78V126.79Z" fill="#888893"/>
<path d="M101.54 88.5801C101.342 88.5803 101.146 88.5406 100.964 88.4632C100.782 88.3859 100.617 88.2726 100.48 88.1301L95.48 83.0701L91.8 86.7701C91.6165 86.957 91.3869 87.0922 91.1344 87.1621C90.882 87.232 90.6155 87.234 90.362 87.1681C90.1085 87.1022 89.8768 86.9706 89.6904 86.7866C89.5039 86.6026 89.3693 86.3727 89.3 86.1201L83.87 67.0001C83.7956 66.743 83.7914 66.4707 83.8577 66.2114C83.9241 65.9521 84.0586 65.7152 84.2474 65.5255C84.4362 65.3357 84.6722 65.1999 84.9312 65.1321C85.1901 65.0644 85.4625 65.0671 85.72 65.1401L104.66 70.6001C104.911 70.672 105.138 70.8079 105.32 70.9946C105.503 71.1813 105.633 71.4122 105.698 71.6646C105.764 71.917 105.763 72.1822 105.695 72.4339C105.627 72.6856 105.494 72.9153 105.31 73.1001L101.63 76.8101L106.63 81.8901C106.908 82.1709 107.064 82.5501 107.064 82.9451C107.064 83.3402 106.908 83.7193 106.63 84.0001L102.57 88.0901C102.439 88.2354 102.28 88.3535 102.104 88.4376C101.927 88.5217 101.735 88.5701 101.54 88.5801ZM95.46 79.4401C95.6579 79.4399 95.8538 79.4797 96.0359 79.557C96.218 79.6343 96.3827 79.7476 96.52 79.8901L101.52 84.9501L103.47 82.9501L98.47 77.8701C98.1915 77.5876 98.0354 77.2068 98.0354 76.8101C98.0354 76.4134 98.1915 76.0326 98.47 75.7501L101.47 72.7501L87.56 68.7501L91.56 82.7501L94.49 79.7501C94.7669 79.5361 95.1103 79.4263 95.46 79.4401Z" fill="#888893"/>
<path d="M90 110C90.7251 110.006 91.4357 109.796 92.0415 109.398C92.6473 108.999 93.1211 108.43 93.4027 107.762C93.6843 107.093 93.7611 106.357 93.6233 105.645C93.4855 104.933 93.1393 104.278 92.6286 103.763C92.118 103.248 91.4659 102.896 90.7551 102.753C90.0443 102.609 89.3069 102.68 88.6364 102.956C87.9659 103.232 87.3925 103.701 86.989 104.304C86.5854 104.906 86.37 105.615 86.37 106.34C86.3674 106.819 86.4592 107.294 86.6404 107.737C86.8215 108.18 87.0883 108.583 87.4255 108.923C87.7627 109.263 88.1637 109.533 88.6055 109.718C89.0472 109.903 89.5211 109.999 90 110Z" fill="#888893"/>
</g>
<defs>
<clipPath id="clip0">
<rect width="180" height="180" fill="white"/>
</clipPath>
</defs>
</svg>
