<svg width="180" height="180" viewBox="0 0 180 180" fill="none" xmlns="http://www.w3.org/2000/svg">
<g clip-path="url(#clip0)">
<path d="M90 3C107.207 3 124.028 8.10246 138.335 17.6621C152.642 27.2218 163.793 40.8094 170.378 56.7065C176.962 72.6037 178.685 90.0965 175.328 106.973C171.971 123.849 163.685 139.351 151.518 151.518C139.351 163.685 123.849 171.971 106.973 175.328C90.0965 178.685 72.6037 176.962 56.7065 170.378C40.8094 163.793 27.2218 152.642 17.6621 138.335C8.10246 124.028 3 107.207 3 90C3.02647 66.9343 12.201 44.8209 28.5109 28.5109C44.8209 12.201 66.9343 3.02647 90 3ZM90 0C72.1997 0 54.7991 5.27841 39.9987 15.1677C25.1983 25.0571 13.6627 39.1131 6.85084 55.5585C0.0389557 72.0038 -1.74334 90.0998 1.72933 107.558C5.20199 125.016 13.7737 141.053 26.3604 153.64C38.9471 166.226 54.9836 174.798 72.4419 178.271C89.9002 181.743 107.996 179.961 124.442 173.149C140.887 166.337 154.943 154.802 164.832 140.001C174.722 125.201 180 107.8 180 90C180 66.1305 170.518 43.2387 153.64 26.3604C136.761 9.48211 113.869 0 90 0V0Z" fill="#888893"/>
<path d="M88 108.1C87.4385 108.102 86.8854 107.964 86.39 107.7L31.37 79C30.8062 78.7057 30.3339 78.2625 30.0042 77.7186C29.6746 77.1748 29.5003 76.5509 29.5003 75.915C29.5003 75.279 29.6746 74.6552 30.0042 74.1113C30.3339 73.5674 30.8062 73.1243 31.37 72.83L84.92 45C85.8577 44.5077 86.9009 44.2505 87.96 44.2505C89.0191 44.2505 90.0623 44.5077 91 45L144.63 72.83C145.194 73.1243 145.666 73.5674 145.996 74.1113C146.325 74.6552 146.5 75.279 146.5 75.915C146.5 76.5509 146.325 77.1748 145.996 77.7186C145.666 78.2625 145.194 78.7057 144.63 79L89.63 107.75C89.1241 108 88.564 108.12 88 108.1ZM88 47.1C87.3998 47.0977 86.8085 47.2455 86.28 47.53L32.69 75.4C32.5867 75.4523 32.5001 75.5324 32.44 75.6314C32.3799 75.7304 32.3487 75.8442 32.35 75.96C32.3494 76.0743 32.381 76.1865 32.4411 76.2837C32.5012 76.381 32.5875 76.4594 32.69 76.51L87.69 105.17C87.7788 105.219 87.8786 105.245 87.98 105.245C88.0814 105.245 88.1812 105.219 88.27 105.17L143.27 76.42C143.373 76.3686 143.46 76.2894 143.521 76.1914C143.581 76.0933 143.614 75.9803 143.614 75.865C143.614 75.7497 143.581 75.6366 143.521 75.5386C143.46 75.4405 143.373 75.3614 143.27 75.31L89.67 47.48C89.1547 47.2092 88.5821 47.0652 88 47.06V47.1Z" fill="#888893"/>
<path d="M138.39 105.19C138.014 105.187 137.655 105.037 137.389 104.771C137.123 104.505 136.973 104.146 136.97 103.77V81.91L85.28 77.38C85.0827 77.3783 84.8878 77.3358 84.7077 77.2552C84.5275 77.1746 84.366 77.0575 84.2334 76.9114C84.1007 76.7653 83.9997 76.5933 83.9367 76.4063C83.8737 76.2193 83.8502 76.0212 83.8675 75.8246C83.8848 75.628 83.9426 75.4372 84.0373 75.264C84.1319 75.0908 84.2614 74.9391 84.4176 74.8185C84.5738 74.6978 84.7532 74.6108 84.9447 74.5628C85.1361 74.5149 85.3354 74.5071 85.53 74.54L138.53 79.18C138.885 79.2123 139.214 79.3758 139.455 79.6384C139.695 79.9011 139.829 80.2439 139.83 80.6V103.77C139.829 103.958 139.79 104.143 139.717 104.316C139.644 104.489 139.538 104.646 139.404 104.778C139.27 104.91 139.112 105.014 138.938 105.085C138.764 105.156 138.578 105.191 138.39 105.19Z" fill="#888893"/>
<path d="M138.39 115.45C137.094 115.44 135.831 115.047 134.758 114.32C133.686 113.592 132.853 112.564 132.364 111.364C131.876 110.164 131.753 108.846 132.013 107.576C132.273 106.307 132.902 105.143 133.823 104.23C134.743 103.318 135.913 102.699 137.185 102.451C138.456 102.203 139.773 102.338 140.969 102.837C142.164 103.337 143.185 104.179 143.903 105.258C144.62 106.337 145.002 107.604 145 108.9C144.999 109.765 144.826 110.621 144.493 111.419C144.16 112.217 143.672 112.941 143.057 113.55C142.443 114.159 141.714 114.64 140.913 114.966C140.112 115.292 139.255 115.457 138.39 115.45ZM138.39 105.19C137.656 105.19 136.939 105.408 136.329 105.815C135.719 106.223 135.243 106.802 134.962 107.48C134.682 108.158 134.608 108.904 134.751 109.624C134.894 110.343 135.248 111.005 135.767 111.523C136.285 112.042 136.947 112.396 137.666 112.539C138.386 112.682 139.132 112.608 139.81 112.328C140.488 112.047 141.067 111.571 141.475 110.961C141.882 110.351 142.1 109.634 142.1 108.9C142.097 107.917 141.706 106.975 141.01 106.28C140.315 105.584 139.373 105.193 138.39 105.19Z" fill="#888893"/>
<path d="M143.53 133.79H133.26C133.04 133.79 132.822 133.739 132.625 133.642C132.427 133.544 132.255 133.402 132.121 133.227C131.988 133.052 131.897 132.848 131.855 132.632C131.813 132.415 131.821 132.192 131.88 131.98L137.02 113.88C137.109 113.587 137.291 113.331 137.538 113.151C137.785 112.971 138.084 112.875 138.39 112.88C138.697 112.877 138.997 112.972 139.245 113.152C139.494 113.332 139.678 113.587 139.77 113.88L144.9 132C144.963 132.212 144.975 132.435 144.935 132.653C144.896 132.87 144.806 133.075 144.672 133.251C144.539 133.427 144.366 133.57 144.168 133.667C143.969 133.764 143.751 133.813 143.53 133.81V133.79ZM135.14 130.94H141.64L138.39 119.49L135.14 130.94Z" fill="#888893"/>
<path d="M88 124.14C66.33 124.14 48.88 113.14 48.88 104.14H51.74C51.74 110.89 67.31 121.3 88 121.3C108.69 121.3 124.26 110.89 124.26 104.14H127.12C127.12 113.19 109.67 124.14 88 124.14Z" fill="#888893"/>
<path d="M51.73 87.3H48.88V104.13H51.73V87.3Z" fill="#888893"/>
<path d="M127.11 87.3H124.26V104.13H127.11V87.3Z" fill="#888893"/>
</g>
<defs>
<clipPath id="clip0">
<rect width="180" height="180" fill="white"/>
</clipPath>
</defs>
</svg>
