<svg width="180" height="180" viewBox="0 0 180 180" fill="none" xmlns="http://www.w3.org/2000/svg">
<g clip-path="url(#clip0)">
<path d="M90 3C107.207 3 124.028 8.10246 138.335 17.6621C152.642 27.2218 163.793 40.8094 170.378 56.7065C176.962 72.6037 178.685 90.0965 175.328 106.973C171.971 123.849 163.685 139.351 151.518 151.518C139.351 163.685 123.849 171.971 106.973 175.328C90.0965 178.685 72.6037 176.962 56.7066 170.378C40.8094 163.793 27.2218 152.642 17.6622 138.335C8.10247 124.028 3.00001 107.207 3.00001 90C3.02648 66.9343 12.201 44.8209 28.511 28.5109C44.8209 12.201 66.9343 3.02647 90 3ZM90 0C72.1997 0 54.7991 5.27841 39.9987 15.1677C25.1983 25.0571 13.6627 39.1131 6.85085 55.5585C0.0389652 72.0038 -1.74334 90.0998 1.72933 107.558C5.202 125.016 13.7737 141.053 26.3604 153.64C38.9471 166.226 54.9836 174.798 72.4419 178.271C89.9002 181.743 107.996 179.961 124.442 173.149C140.887 166.337 154.943 154.802 164.832 140.001C174.722 125.201 180 107.8 180 90C180 66.1305 170.518 43.2387 153.64 26.3604C136.761 9.48211 113.869 0 90 0V0Z" fill="#888893"/>
<path d="M98.52 59C98.2838 59.0017 98.0506 58.9468 97.84 58.84L90 54.68L82.16 58.81C81.9174 58.933 81.646 58.9877 81.3747 58.9683C81.1035 58.949 80.8426 58.8562 80.62 58.7C80.3913 58.5429 80.2117 58.3244 80.102 58.0695C79.9923 57.8147 79.9569 57.5341 80 57.26L81.5 48.53L75.15 42.35C74.9541 42.1572 74.8166 41.9129 74.7534 41.6454C74.6902 41.3779 74.7037 41.098 74.7925 40.8379C74.8813 40.5778 75.0418 40.348 75.2554 40.175C75.469 40.002 75.7271 39.8928 76 39.86L84.77 38.58L88.69 30.64C88.8104 30.3953 88.9969 30.1892 89.2285 30.0451C89.46 29.901 89.7273 29.8246 90 29.8246C90.2727 29.8246 90.54 29.901 90.7715 30.0451C91.003 30.1892 91.1896 30.3953 91.31 30.64L95.23 38.58L104 39.86C104.27 39.8991 104.523 40.0128 104.731 40.1883C104.94 40.3639 105.095 40.5942 105.179 40.8532C105.263 41.1123 105.273 41.3898 105.208 41.6543C105.143 41.9188 105.005 42.1598 104.81 42.35L98.46 48.53L99.96 57.26C100.007 57.5302 99.9781 57.8083 99.8756 58.0628C99.7731 58.3173 99.6014 58.538 99.38 58.7C99.131 58.8861 98.8307 58.9909 98.52 59ZM90 51.57C90.2369 51.5718 90.4701 51.6301 90.68 51.74L96.58 54.84L95.45 48.27C95.4145 48.0402 95.4342 47.8052 95.5072 47.5845C95.5802 47.3637 95.7045 47.1634 95.87 47L100.64 42.34L94.05 41.34C93.8152 41.3068 93.5921 41.2164 93.4004 41.077C93.2086 40.9375 93.0539 40.7531 92.95 40.54L89.95 34.54L86.95 40.54C86.846 40.7531 86.6914 40.9375 86.4996 41.077C86.3078 41.2164 86.0848 41.3068 85.85 41.34L79.25 42.34L84.13 47C84.2985 47.1655 84.4246 47.3691 84.4977 47.5936C84.5708 47.8182 84.5887 48.057 84.55 48.29L83.42 54.86L89.32 51.76C89.5282 51.6431 89.7614 51.5779 90 51.57Z" fill="#888893"/>
<path d="M57.59 112.18H48.15C47.7619 112.177 47.3905 112.021 47.117 111.746C46.8435 111.471 46.69 111.098 46.69 110.71V101.5C46.686 101.305 46.7208 101.112 46.7922 100.931C46.8637 100.749 46.9705 100.584 47.1063 100.445C47.2421 100.305 47.4044 100.194 47.5835 100.118C47.7627 100.041 47.9553 100.001 48.15 100H56.15V93.3H48.15C47.7824 93.2696 47.4396 93.1021 47.1897 92.8307C46.9398 92.5593 46.8011 92.2039 46.8011 91.835C46.8011 91.4661 46.9398 91.1107 47.1897 90.8393C47.4396 90.5679 47.7824 90.4004 48.15 90.37H57.59C57.9799 90.37 58.3538 90.5249 58.6295 90.8005C58.9051 91.0762 59.06 91.4501 59.06 91.84V101.5C59.064 101.696 59.0289 101.89 58.9568 102.072C58.8848 102.254 58.7771 102.419 58.6402 102.559C58.5033 102.699 58.3399 102.81 58.1596 102.885C57.9792 102.961 57.7856 103 57.59 103H49.59V109.28H57.59C57.7926 109.263 57.9964 109.289 58.1886 109.355C58.3809 109.421 58.5573 109.526 58.7068 109.664C58.8564 109.801 58.9757 109.968 59.0574 110.155C59.139 110.341 59.1811 110.542 59.1811 110.745C59.1811 110.948 59.139 111.149 59.0574 111.335C58.9757 111.522 58.8564 111.689 58.7068 111.826C58.5573 111.964 58.3809 112.069 58.1886 112.135C57.9964 112.201 57.7926 112.227 57.59 112.21V112.18Z" fill="#888893"/>
<path d="M95.83 95.91H86.39C86.0224 95.8796 85.6796 95.7121 85.4297 95.4407C85.1798 95.1693 85.0411 94.8139 85.0411 94.445C85.0411 94.0761 85.1798 93.7207 85.4297 93.4493C85.6796 93.1779 86.0224 93.0104 86.39 92.98H95.83C96.1976 93.0104 96.5404 93.1779 96.7903 93.4493C97.0402 93.7207 97.1789 94.0761 97.1789 94.445C97.1789 94.8139 97.0402 95.1693 96.7903 95.4407C96.5404 95.7121 96.1976 95.8796 95.83 95.91Z" fill="#888893"/>
<path d="M91 95.91C90.6128 95.91 90.2414 95.7562 89.9676 95.4824C89.6938 95.2086 89.54 94.8372 89.54 94.45V77H86.39C86.0028 77 85.6314 76.8462 85.3576 76.5724C85.0838 76.2986 84.93 75.9272 84.93 75.54C84.93 75.1528 85.0838 74.7814 85.3576 74.5076C85.6314 74.2338 86.0028 74.08 86.39 74.08H91C91.3872 74.08 91.7586 74.2338 92.0324 74.5076C92.3062 74.7814 92.46 75.1528 92.46 75.54V94.45C92.46 94.8372 92.3062 95.2086 92.0324 95.4824C91.7586 95.7562 91.3872 95.91 91 95.91Z" fill="#888893"/>
<path d="M132.53 109.49H123.09C122.703 109.49 122.331 109.336 122.058 109.062C121.784 108.789 121.63 108.417 121.63 108.03C121.63 107.643 121.784 107.271 122.058 106.998C122.331 106.724 122.703 106.57 123.09 106.57H131.09V100.05H123.09C122.703 100.05 122.331 99.8962 122.058 99.6224C121.784 99.3486 121.63 98.9772 121.63 98.59C121.63 98.2028 121.784 97.8314 122.058 97.5576C122.331 97.2838 122.703 97.13 123.09 97.13H132.53C132.723 97.1287 132.914 97.1655 133.092 97.2382C133.27 97.311 133.432 97.4183 133.569 97.5541C133.705 97.6898 133.814 97.8512 133.888 98.0289C133.962 98.2067 134 98.3974 134 98.59V108C134.004 108.195 133.969 108.389 133.897 108.57C133.824 108.752 133.717 108.916 133.58 109.055C133.443 109.194 133.279 109.304 133.099 109.379C132.919 109.454 132.725 109.491 132.53 109.49Z" fill="#888893"/>
<path d="M132.53 118.93H123.09C122.703 118.93 122.331 118.776 122.058 118.502C121.784 118.229 121.63 117.857 121.63 117.47C121.63 117.083 121.784 116.711 122.058 116.438C122.331 116.164 122.703 116.01 123.09 116.01H131.09V108.01C131.09 107.623 131.244 107.251 131.518 106.978C131.791 106.704 132.163 106.55 132.55 106.55C132.937 106.55 133.309 106.704 133.582 106.978C133.856 107.251 134.01 107.623 134.01 108.01V117.45C134.013 117.645 133.976 117.839 133.903 118.02C133.829 118.2 133.72 118.365 133.583 118.503C133.445 118.64 133.28 118.749 133.1 118.823C132.919 118.896 132.725 118.933 132.53 118.93Z" fill="#888893"/>
<path d="M71.32 130.77H37.41C36.1078 130.77 34.8589 130.253 33.9381 129.332C33.0173 128.411 32.5 127.162 32.5 125.86V85.56C32.5026 84.2586 33.0208 83.0113 33.941 82.091C34.8613 81.1708 36.1086 80.6527 37.41 80.65H71.32C71.5126 80.65 71.7032 80.6881 71.881 80.7621C72.0588 80.8361 72.2202 80.9445 72.3559 81.0812C72.4916 81.2178 72.599 81.3799 72.6717 81.5582C72.7445 81.7365 72.7813 81.9275 72.78 82.12V129.31C72.78 129.697 72.6262 130.069 72.3524 130.342C72.0786 130.616 71.7072 130.77 71.32 130.77ZM37.41 83.58C36.8796 83.58 36.3709 83.7907 35.9958 84.1658C35.6207 84.5409 35.41 85.0496 35.41 85.58V125.88C35.41 126.41 35.6207 126.919 35.9958 127.294C36.3709 127.669 36.8796 127.88 37.41 127.88H69.86V83.58H37.41Z" fill="#888893"/>
<path d="M142.59 130.77H108.68C108.293 130.77 107.921 130.616 107.648 130.342C107.374 130.069 107.22 129.697 107.22 129.31V88C107.22 87.6128 107.374 87.2414 107.648 86.9676C107.921 86.6938 108.293 86.54 108.68 86.54H142.59C143.892 86.54 145.141 87.0573 146.062 87.9781C146.983 88.8989 147.5 90.1478 147.5 91.45V125.85C147.501 126.496 147.375 127.135 147.129 127.732C146.883 128.329 146.521 128.871 146.065 129.328C145.609 129.785 145.068 130.148 144.471 130.395C143.875 130.643 143.236 130.77 142.59 130.77ZM110.14 127.84H142.59C143.12 127.84 143.629 127.629 144.004 127.254C144.379 126.879 144.59 126.37 144.59 125.84V91.46C144.59 90.9295 144.379 90.4208 144.004 90.0458C143.629 89.6707 143.12 89.46 142.59 89.46H110.14V127.84Z" fill="#888893"/>
<path d="M108.68 130.77H71.32C70.9328 130.77 70.5614 130.616 70.2876 130.342C70.0138 130.069 69.86 129.697 69.86 129.31V67.87C69.8705 66.5747 70.3925 65.3361 71.3122 64.4239C72.2318 63.5118 73.4747 63 74.77 63H105.23C106.532 63 107.781 63.5173 108.702 64.4381C109.623 65.3589 110.14 66.6078 110.14 67.91V129.35C110.13 129.73 109.971 130.091 109.698 130.357C109.426 130.622 109.06 130.77 108.68 130.77ZM72.78 127.84H107.22V67.84C107.22 67.3096 107.009 66.8009 106.634 66.4258C106.259 66.0507 105.75 65.84 105.22 65.84H74.77C74.2395 65.84 73.7308 66.0507 73.3558 66.4258C72.9807 66.8009 72.77 67.3096 72.77 67.84L72.78 127.84Z" fill="#888893"/>
</g>
<defs>
<clipPath id="clip0">
<rect width="180" height="180" fill="white"/>
</clipPath>
</defs>
</svg>
