<svg width="180" height="180" viewBox="0 0 180 180" fill="none" xmlns="http://www.w3.org/2000/svg">
<g clip-path="url(#clip0)">
<path d="M89.93 3C107.137 3 123.958 8.10246 138.265 17.6621C152.572 27.2218 163.723 40.8094 170.308 56.7065C176.892 72.6037 178.615 90.0965 175.258 106.973C171.901 123.849 163.615 139.351 151.448 151.518C139.281 163.685 123.779 171.971 106.903 175.328C90.0265 178.685 72.5337 176.962 56.6365 170.378C40.7394 163.793 27.1518 152.642 17.5921 138.335C8.03246 124.028 2.93 107.207 2.93 90C2.95647 66.9343 12.131 44.8209 28.4409 28.5109C44.7509 12.201 66.8643 3.02647 89.93 3ZM89.93 0C72.1297 0 54.7291 5.27841 39.9287 15.1677C25.1283 25.0571 13.5927 39.1131 6.78084 55.5585C-0.0310421 72.0038 -1.81334 90.0998 1.65933 107.558C5.132 125.016 13.7037 141.053 26.2904 153.64C38.8771 166.226 54.9136 174.798 72.3719 178.271C89.8302 181.743 107.926 179.961 124.372 173.149C140.817 166.337 154.873 154.802 164.762 140.001C174.652 125.201 179.93 107.8 179.93 90C179.93 78.181 177.602 66.4778 173.079 55.5585C168.556 44.6392 161.927 34.7177 153.57 26.3604C145.212 18.0031 135.291 11.3738 124.372 6.85084C113.452 2.32792 101.749 0 89.93 0V0Z" fill="#888893"/>
<path d="M107.8 90.84L106.8 88.3C122 82.18 132 68.57 133.48 51.88C133.511 51.5047 133.464 51.127 133.341 50.7708C133.219 50.4145 133.025 50.0874 132.77 49.81C132.501 49.5136 132.172 49.2774 131.804 49.1171C131.437 48.9569 131.041 48.8761 130.64 48.88H118.25V46.14H130.64C131.423 46.1438 132.197 46.3112 132.912 46.6315C133.626 46.9518 134.266 47.4179 134.79 48C135.303 48.5581 135.694 49.2175 135.937 49.9357C136.179 50.6539 136.269 51.415 136.2 52.17C135.509 60.6127 132.489 68.698 127.474 75.5255C122.46 82.353 115.649 87.6546 107.8 90.84Z" fill="#888893"/>
<path d="M73.06 91.23C64.9569 88.1761 57.8898 82.88 52.684 75.9601C47.4781 69.0402 44.3483 60.782 43.66 52.15C43.5974 51.3985 43.6903 50.6422 43.9329 49.9282C44.1755 49.2142 44.5626 48.5578 45.07 48C45.6016 47.4243 46.2464 46.9645 46.9639 46.6496C47.6815 46.3347 48.4564 46.1714 49.24 46.17H61.62V48.91H49.24C48.837 48.9059 48.4378 48.9876 48.0688 49.1496C47.6998 49.3117 47.3696 49.5504 47.1 49.85C46.8414 50.1268 46.6444 50.4553 46.522 50.8139C46.3996 51.1724 46.3546 51.5528 46.39 51.93C47.0344 60.0406 49.9725 67.8007 54.8613 74.3043C59.7501 80.808 66.3879 85.7869 74 88.66L73.06 91.23Z" fill="#888893"/>
<path d="M72.51 90.83C65.78 83 61.09 71.24 60.26 60.12C60.26 59.97 60.26 59.82 60.26 59.67V45C60.2758 43.5351 60.8723 42.1363 61.9185 41.1107C62.9647 40.0852 64.3751 39.5166 65.84 39.53H114C114.729 39.5181 115.453 39.6503 116.13 39.9192C116.807 40.188 117.425 40.5881 117.947 41.0964C118.47 41.6047 118.886 42.2113 119.173 42.8812C119.46 43.5511 119.612 44.2712 119.62 45V59.68C119.62 59.82 119.62 59.96 119.62 60.1C118.86 71.27 114.62 82.6 108.36 90.42L106.23 88.71C112.23 81.3 116.16 70.54 116.88 59.92C116.885 59.8401 116.885 59.7599 116.88 59.68V45C116.878 44.628 116.801 44.2603 116.653 43.9187C116.506 43.5771 116.292 43.2684 116.024 43.011C115.755 42.7537 115.438 42.5528 115.09 42.4204C114.742 42.2879 114.372 42.2266 114 42.24H65.83C65.4624 42.2334 65.0972 42.2997 64.7554 42.4352C64.4136 42.5707 64.1022 42.7726 63.839 43.0293C63.5758 43.286 63.3661 43.5923 63.2221 43.9306C63.0781 44.2689 63.0026 44.6323 63 45V59.7C62.995 59.7866 62.995 59.8734 63 59.96C63.78 70.48 68.22 81.64 74.59 89L72.51 90.83Z" fill="#888893"/>
<path d="M82.86 73.64C82.5678 73.6407 82.2833 73.5459 82.05 73.37C81.838 73.2176 81.6743 73.0074 81.5785 72.7644C81.4828 72.5215 81.459 72.2561 81.51 72L82.73 65.06L77.55 60.14C77.3632 59.9627 77.2302 59.7364 77.1662 59.487C77.1021 59.2375 77.1097 58.9751 77.188 58.7298C77.2663 58.4845 77.4121 58.2662 77.6088 58.1C77.8055 57.9337 78.0451 57.8263 78.3 57.79L85.5 56.79L88.71 50.45C88.8248 50.2252 88.9995 50.0366 89.2148 49.9048C89.4301 49.773 89.6776 49.7033 89.93 49.7033C90.1824 49.7033 90.4299 49.773 90.6452 49.9048C90.8605 50.0366 91.0352 50.2252 91.15 50.45L94.36 56.79L101.56 57.79C101.815 57.8263 102.055 57.9337 102.251 58.1C102.448 58.2662 102.594 58.4845 102.672 58.7298C102.75 58.9751 102.758 59.2375 102.694 59.487C102.63 59.7364 102.497 59.9627 102.31 60.14L97.13 65.06L98.35 72C98.395 72.2515 98.3682 72.5107 98.2727 72.7476C98.1771 72.9846 98.0168 73.1899 97.81 73.34C97.607 73.4924 97.3652 73.5845 97.1123 73.6058C96.8593 73.627 96.6055 73.5765 96.38 73.46L89.93 70.16L83.48 73.46C83.2909 73.5693 83.0782 73.631 82.86 73.64ZM89.93 67.28C90.1457 67.2798 90.3583 67.3312 90.55 67.43L95.17 69.8L94.3 64.8C94.2606 64.5771 94.2774 64.3478 94.349 64.133C94.4206 63.9182 94.5447 63.7247 94.71 63.57L98.37 60.09L93.27 59.37C93.057 59.3336 92.8556 59.2476 92.6819 59.1191C92.5082 58.9906 92.3671 58.823 92.27 58.63L89.96 54.07L87.65 58.63C87.5529 58.823 87.4118 58.9906 87.2381 59.1191C87.0644 59.2476 86.863 59.3336 86.65 59.37L81.55 60.09L85.21 63.57C85.3753 63.7247 85.4994 63.9182 85.571 64.133C85.6426 64.3478 85.6595 64.5771 85.62 64.8L84.75 69.8L89.37 67.43C89.5436 67.34 89.7347 67.2889 89.93 67.28Z" fill="#888893"/>
<path d="M118.68 144.5H61.18V138C61.1958 136.535 61.7923 135.136 62.8385 134.111C63.8847 133.085 65.295 132.517 66.76 132.53H69.6V115.53C69.6184 114.065 70.2154 112.667 71.2607 111.64C72.3061 110.614 73.7149 110.042 75.18 110.05H81.48V100C81.4834 99.4694 81.3487 98.9471 81.0892 98.4842C80.8298 98.0214 80.4544 97.634 80 97.36C77.1654 95.5886 74.6248 93.3854 72.47 90.83L74.59 89C76.5521 91.347 78.8703 93.3716 81.46 95C82.311 95.526 83.012 96.2624 83.4955 97.1382C83.9789 98.014 84.2285 98.9997 84.22 100V112.86H75.22C74.4808 112.849 73.7673 113.131 73.2353 113.645C72.7032 114.158 72.3958 114.861 72.38 115.6V135.3H66.76C66.0268 135.287 65.3177 135.562 64.7862 136.068C64.2547 136.573 63.9435 137.267 63.92 138V141.74H115.92V138C115.904 137.262 115.596 136.56 115.064 136.048C114.532 135.536 113.818 135.257 113.08 135.27H107.5V115.57C107.492 115.204 107.412 114.842 107.265 114.507C107.117 114.171 106.905 113.868 106.641 113.615C106.376 113.361 106.064 113.162 105.722 113.029C105.381 112.896 105.016 112.832 104.65 112.84H95.93V100.29C95.9247 99.2965 96.1806 98.3191 96.6721 97.4556C97.1635 96.5921 97.8731 95.8729 98.73 95.37C101.615 93.6292 104.154 91.3715 106.22 88.71L108.35 90.43C106.075 93.3553 103.278 95.8338 100.1 97.74C99.6599 98.0034 99.2964 98.3773 99.0456 98.8247C98.7947 99.272 98.6652 99.7772 98.67 100.29V110.12H104.67C106.136 110.107 107.547 110.675 108.595 111.7C109.643 112.725 110.242 114.124 110.26 115.59V132.59H113.1C114.565 132.577 115.975 133.145 117.021 134.171C118.068 135.196 118.664 136.595 118.68 138.06V144.5Z" fill="#888893"/>
<path d="M108.88 132.55H70.97V135.29H108.88V132.55Z" fill="#888893"/>
<path d="M97.3 110.11H82.85V112.85H97.3V110.11Z" fill="#888893"/>
</g>
<defs>
<clipPath id="clip0">
<rect width="180" height="180" fill="white"/>
</clipPath>
</defs>
</svg>
