<svg width="80" height="80" viewBox="0 0 80 80" fill="none" xmlns="http://www.w3.org/2000/svg">
<g clip-path="url(#clip0)">
<path d="M40 1.77778C47.5596 1.77778 54.9495 4.01947 61.2351 8.21938C67.5207 12.4193 72.4198 18.3888 75.3127 25.373C78.2057 32.3572 78.9626 40.0424 77.4878 47.4568C76.013 54.8712 72.3727 61.6817 67.0272 67.0272C61.6817 72.3727 54.8712 76.013 47.4568 77.4878C40.0424 78.9626 32.3572 78.2057 25.373 75.3127C18.3888 72.4198 12.4193 67.5207 8.21937 61.2351C4.01946 54.9495 1.77777 47.5596 1.77777 40C1.78953 29.8664 5.82028 20.1513 12.9858 12.9858C20.1513 5.82029 29.8664 1.78954 40 1.77778ZM40 0C32.0887 0 24.3551 2.34596 17.7772 6.74122C11.1992 11.1365 6.07231 17.3836 3.04481 24.6927C0.0173009 32.0017 -0.774833 40.0444 0.768576 47.8036C2.31199 55.5629 6.12162 62.6902 11.7157 68.2843C17.3098 73.8784 24.4371 77.688 32.1964 79.2314C39.9556 80.7748 47.9983 79.9827 55.3073 76.9552C62.6164 73.9277 68.8635 68.8008 73.2588 62.2228C77.654 55.6448 80 47.9113 80 40C80 29.3913 75.7857 19.2172 68.2843 11.7157C60.7828 4.21427 50.6087 0 40 0V0Z" fill="#E84133"/>
<path d="M40.0489 21.3067C40.2386 21.3102 40.4251 21.2572 40.5845 21.1544C40.744 21.0515 40.8692 20.9036 40.9443 20.7293C41.0194 20.555 41.0408 20.3624 41.006 20.1759C40.9712 19.9893 40.8816 19.8174 40.7487 19.682C40.6158 19.5466 40.4456 19.4538 40.2597 19.4155C40.0739 19.3771 39.8809 19.395 39.7052 19.4668C39.5296 19.5385 39.3793 19.661 39.2735 19.8185C39.1677 19.976 39.1112 20.1614 39.1111 20.3511C39.1105 20.4764 39.1347 20.6006 39.1822 20.7165C39.2298 20.8324 39.2997 20.9378 39.3881 21.0266C39.4765 21.1153 39.5815 21.1858 39.6972 21.2339C39.8129 21.2819 39.937 21.3067 40.0622 21.3067H40.0489Z" fill="#E84133"/>
<path d="M40.0489 23.2089C38.3539 23.208 36.6968 23.7098 35.2871 24.6508C33.8773 25.5918 32.7783 26.9298 32.1291 28.4955C31.4799 30.0612 31.3095 31.7842 31.6397 33.4467C31.9698 35.1092 32.7856 36.6365 33.9838 37.8353C35.182 39.0341 36.7088 39.8507 38.3711 40.1817C40.0334 40.5127 41.7566 40.3432 43.3226 39.6948C44.8886 39.0464 46.2272 37.9481 47.1689 36.5388C48.1107 35.1296 48.6133 33.4727 48.6133 31.7778C48.611 29.5066 47.7081 27.3291 46.1025 25.7228C44.497 24.1165 42.32 23.2124 40.0489 23.2089ZM40.0489 38.44C38.7304 38.44 37.4414 38.049 36.3451 37.3164C35.2488 36.5839 34.3943 35.5427 33.8897 34.3245C33.3851 33.1064 33.2531 31.7659 33.5103 30.4727C33.7676 29.1795 34.4025 27.9916 35.3348 27.0593C36.2672 26.1269 37.4551 25.492 38.7483 25.2347C40.0415 24.9775 41.3819 25.1095 42.6001 25.6141C43.8183 26.1187 44.8595 26.9732 45.592 28.0695C46.3246 29.1658 46.7156 30.4548 46.7156 31.7733C46.7156 33.5414 46.0132 35.2371 44.7629 36.4874C43.5127 37.7376 41.817 38.44 40.0489 38.44Z" fill="#E84133"/>
<path d="M56.2311 31.7778C56.2311 27.486 54.5262 23.37 51.4914 20.3352C48.4567 17.3005 44.3407 15.5956 40.0489 15.5956C35.7571 15.5956 31.6411 17.3005 28.6063 20.3352C25.5716 23.37 23.8667 27.486 23.8667 31.7778C23.8667 45.5556 40 64.3289 40 64.3289C40.5467 63.7823 56.2311 45.0311 56.2311 31.7778ZM40.0489 60.6667C40.0489 60.6667 25.7778 43.7556 25.7778 31.7778C25.7443 29.8816 26.0889 27.9978 26.7914 26.2362C27.4939 24.4746 28.5403 22.8707 29.8694 21.5179C31.1985 20.1651 32.7838 19.0906 34.5327 18.3571C36.2816 17.6236 38.1591 17.2459 40.0556 17.2459C41.952 17.2459 43.8295 17.6236 45.5784 18.3571C47.3273 19.0906 48.9126 20.1651 50.2417 21.5179C51.5708 22.8707 52.6172 24.4746 53.3197 26.2362C54.0222 27.9978 54.3668 29.8816 54.3333 31.7778C54.3244 43.7289 40.0489 60.6623 40.0489 60.6623V60.6667Z" fill="#E84133"/>
<path d="M43.4889 21.8845C45.5414 22.6019 47.3204 23.9391 48.58 25.7114C49.8395 27.4837 50.5174 29.6035 50.52 31.7778C50.52 32.0301 50.6202 32.272 50.7986 32.4504C50.9769 32.6287 51.2188 32.7289 51.4711 32.7289C51.7233 32.7289 51.9653 32.6287 52.1436 32.4504C52.322 32.272 52.4222 32.0301 52.4222 31.7778C52.4195 29.2089 51.6188 26.7043 50.1307 24.6103C48.6426 22.5163 46.5407 20.9363 44.1155 20.0889C43.9948 20.027 43.8622 19.9917 43.7267 19.9853C43.5911 19.9789 43.4558 20.0016 43.3297 20.0518C43.2037 20.102 43.0898 20.1786 42.9958 20.2765C42.9018 20.3744 42.8299 20.4912 42.7848 20.6192C42.7396 20.7471 42.7224 20.8833 42.7343 21.0185C42.7461 21.1536 42.7868 21.2847 42.8535 21.4029C42.9202 21.521 43.0114 21.6236 43.121 21.7036C43.2306 21.7836 43.356 21.8392 43.4889 21.8667V21.8845Z" fill="#E84133"/>
</g>
<defs>
<clipPath id="clip0">
<rect width="80" height="80" fill="white"/>
</clipPath>
</defs>
</svg>
