<svg width="80" height="80" viewBox="0 0 80 80" fill="none" xmlns="http://www.w3.org/2000/svg">
<g clip-path="url(#clip0)">
<path d="M40 1.77778C47.5596 1.77778 54.9495 4.01947 61.2351 8.21938C67.5207 12.4193 72.4198 18.3888 75.3127 25.373C78.2057 32.3572 78.9626 40.0424 77.4878 47.4568C76.013 54.8712 72.3726 61.6817 67.0272 67.0272C61.6817 72.3727 54.8711 76.013 47.4568 77.4878C40.0424 78.9626 32.3572 78.2057 25.373 75.3127C18.3888 72.4198 12.4193 67.5207 8.21936 61.2351C4.01945 54.9495 1.77776 47.5596 1.77776 40C1.78952 29.8664 5.82027 20.1513 12.9858 12.9858C20.1513 5.82029 29.8664 1.78954 40 1.77778ZM40 0C32.0887 0 24.3551 2.34596 17.7772 6.74122C11.1992 11.1365 6.0723 17.3836 3.0448 24.6927C0.0172914 32.0017 -0.774842 40.0444 0.768567 47.8036C2.31198 55.5629 6.12161 62.6902 11.7157 68.2843C17.3098 73.8784 24.4371 77.688 32.1964 79.2314C39.9556 80.7748 47.9983 79.9827 55.3073 76.9552C62.6164 73.9277 68.8635 68.8008 73.2588 62.2228C77.654 55.6448 80 47.9113 80 40C80 29.3913 75.7857 19.2172 68.2843 11.7157C60.7828 4.21427 50.6086 0 40 0V0Z" fill="#E84133"/>
<path d="M27.8489 31.7422C27.6731 31.7422 27.5012 31.7943 27.355 31.892C27.2089 31.9897 27.0949 32.1285 27.0277 32.2909C26.9604 32.4533 26.9428 32.6321 26.9771 32.8045C27.0114 32.9769 27.096 33.1353 27.2203 33.2596C27.3447 33.3839 27.503 33.4686 27.6755 33.5029C27.8479 33.5372 28.0266 33.5196 28.189 33.4523C28.3515 33.385 28.4903 33.2711 28.588 33.1249C28.6856 32.9787 28.7378 32.8069 28.7378 32.6311C28.7378 32.3953 28.6441 32.1692 28.4774 32.0025C28.3107 31.8358 28.0846 31.7422 27.8489 31.7422Z" fill="#E84133"/>
<path d="M20.3822 61.7778H59.6178C60.3082 61.7767 60.9699 61.5019 61.4581 61.0137C61.9463 60.5255 62.221 59.8638 62.2222 59.1734V23.4089C62.221 22.7186 61.9463 22.0568 61.4581 21.5686C60.9699 21.0804 60.3082 20.8057 59.6178 20.8045H58.2222V19.9156C58.2222 19.2249 57.9478 18.5624 57.4594 18.074C56.971 17.5856 56.3085 17.3112 55.6178 17.3112C54.927 17.3112 54.2646 17.5856 53.7762 18.074C53.2877 18.5624 53.0133 19.2249 53.0133 19.9156V20.8045H47.8133V19.9156C47.8133 19.2249 47.5389 18.5624 47.0505 18.074C46.5621 17.5856 45.8996 17.3112 45.2089 17.3112C44.5181 17.3112 43.8557 17.5856 43.3673 18.074C42.8788 18.5624 42.6044 19.2249 42.6044 19.9156V20.8045H37.3956V19.9156C37.3956 19.2249 37.1212 18.5624 36.6327 18.074C36.1443 17.5856 35.4818 17.3112 34.7911 17.3112C34.1004 17.3112 33.4379 17.5856 32.9495 18.074C32.4611 18.5624 32.1867 19.2249 32.1867 19.9156V20.8045H26.9778V19.9156C26.9778 19.2249 26.7034 18.5624 26.215 18.074C25.7265 17.5856 25.0641 17.3112 24.3733 17.3112C23.6826 17.3112 23.0201 17.5856 22.5317 18.074C22.0433 18.5624 21.7689 19.2249 21.7689 19.9156V20.8045H20.3822C19.6918 20.8057 19.0301 21.0804 18.5419 21.5686C18.0537 22.0568 17.779 22.7186 17.7778 23.4089V59.1734C17.779 59.8638 18.0537 60.5255 18.5419 61.0137C19.0301 61.5019 19.6918 61.7767 20.3822 61.7778ZM59.6178 60.0401H20.3822C20.1465 60.0401 19.9204 59.9464 19.7537 59.7797C19.587 59.613 19.4933 59.3869 19.4933 59.1512V30.0089H60.4622V59.1734C60.4569 59.3978 60.3669 59.6118 60.2102 59.7726C60.0536 59.9333 59.8419 60.0289 59.6178 60.0401ZM54.7556 19.9378C54.7984 19.7392 54.908 19.5613 55.0661 19.4337C55.2242 19.306 55.4213 19.2364 55.6244 19.2364C55.8276 19.2364 56.0247 19.306 56.1828 19.4337C56.3409 19.5613 56.4505 19.7392 56.4933 19.9378V20.8267H54.7556V19.9378ZM44.3422 19.9378C44.3126 19.8076 44.3126 19.6725 44.3423 19.5423C44.3721 19.4121 44.4308 19.2904 44.514 19.186C44.5973 19.0816 44.703 18.9973 44.8233 18.9394C44.9436 18.8815 45.0754 18.8514 45.2089 18.8514C45.3424 18.8514 45.4742 18.8815 45.5945 18.9394C45.7148 18.9973 45.8205 19.0816 45.9038 19.186C45.987 19.2904 46.0457 19.4121 46.0754 19.5423C46.1052 19.6725 46.1052 19.8076 46.0756 19.9378V20.8267H44.3422V19.9378ZM33.9244 19.9378C33.8948 19.8076 33.8948 19.6725 33.9246 19.5423C33.9543 19.4121 34.013 19.2904 34.0962 19.186C34.1795 19.0816 34.2852 18.9973 34.4055 18.9394C34.5258 18.8815 34.6576 18.8514 34.7911 18.8514C34.9246 18.8514 35.0564 18.8815 35.1767 18.9394C35.297 18.9973 35.4027 19.0816 35.486 19.186C35.5692 19.2904 35.6279 19.4121 35.6577 19.5423C35.6874 19.6725 35.6874 19.8076 35.6578 19.9378V20.8267H33.9244V19.9378ZM23.5067 19.9378C23.5495 19.7392 23.6591 19.5613 23.8172 19.4337C23.9753 19.306 24.1724 19.2364 24.3756 19.2364C24.5787 19.2364 24.7758 19.306 24.9339 19.4337C25.092 19.5613 25.2016 19.7392 25.2444 19.9378V20.8267H23.5067V19.9378ZM20.3956 22.5423H21.7778V23.6712C21.779 24.3615 22.0537 25.0233 22.5419 25.5115C23.0301 25.9997 23.6918 26.2744 24.3822 26.2756C24.5119 26.3036 24.6462 26.3022 24.7752 26.2715C24.9043 26.2409 25.0248 26.1817 25.128 26.0984C25.2313 26.0151 25.3145 25.9097 25.3717 25.79C25.4289 25.6703 25.4586 25.5394 25.4586 25.4067C25.4586 25.2741 25.4289 25.1431 25.3717 25.0234C25.3145 24.9037 25.2313 24.7984 25.128 24.7151C25.0248 24.6317 24.9043 24.5726 24.7752 24.5419C24.6462 24.5112 24.5119 24.5098 24.3822 24.5378C24.1465 24.5378 23.9204 24.4442 23.7537 24.2775C23.587 24.1108 23.4933 23.8847 23.4933 23.6489V22.5423H32.1867V23.6712C32.1878 24.3615 32.4626 25.0233 32.9508 25.5115C33.439 25.9997 34.1007 26.2744 34.7911 26.2756C34.9897 26.2327 35.1677 26.1231 35.2953 25.965C35.4229 25.8069 35.4925 25.6099 35.4925 25.4067C35.4925 25.2035 35.4229 25.0065 35.2953 24.8484C35.1677 24.6903 34.9897 24.5807 34.7911 24.5378C34.5554 24.5378 34.3293 24.4442 34.1626 24.2775C33.9959 24.1108 33.9022 23.8847 33.9022 23.6489V22.5423H42.6044V23.6712C42.6056 24.3615 42.8804 25.0233 43.3686 25.5115C43.8567 25.9997 44.5185 26.2744 45.2089 26.2756C45.4075 26.2327 45.5854 26.1231 45.713 25.965C45.8407 25.8069 45.9103 25.6099 45.9103 25.4067C45.9103 25.2035 45.8407 25.0065 45.713 24.8484C45.5854 24.6903 45.4075 24.5807 45.2089 24.5378C44.9731 24.5378 44.747 24.4442 44.5803 24.2775C44.4136 24.1108 44.32 23.8847 44.32 23.6489V22.5423H53.0222V23.6712C53.0234 24.3615 53.2982 25.0233 53.7863 25.5115C54.2745 25.9997 54.9363 26.2744 55.6267 26.2756C55.8253 26.2327 56.0032 26.1231 56.1308 25.965C56.2584 25.8069 56.3281 25.6099 56.3281 25.4067C56.3281 25.2035 56.2584 25.0065 56.1308 24.8484C56.0032 24.6903 55.8253 24.5807 55.6267 24.5378C55.3909 24.5378 55.1648 24.4442 54.9981 24.2775C54.8314 24.1108 54.7378 23.8847 54.7378 23.6489V22.5423H59.6C59.8357 22.5423 60.0618 22.6359 60.2285 22.8026C60.3952 22.9693 60.4889 23.1954 60.4889 23.4312V28.2712H19.5156V23.4089C19.5212 23.1809 19.6143 22.9637 19.7756 22.8023C19.937 22.641 20.1541 22.5479 20.3822 22.5423H20.3956Z" fill="#E84133"/>
<path d="M52.1511 31.7422H31.32C31.1214 31.785 30.9435 31.8946 30.8158 32.0527C30.6882 32.2108 30.6186 32.4079 30.6186 32.6111C30.6186 32.8142 30.6882 33.0113 30.8158 33.1694C30.9435 33.3275 31.1214 33.4371 31.32 33.4799H52.1511C52.2808 33.5079 52.4151 33.5065 52.5441 33.4759C52.6732 33.4452 52.7937 33.386 52.8969 33.3027C53.0002 33.2194 53.0834 33.114 53.1406 32.9944C53.1978 32.8747 53.2275 32.7437 53.2275 32.6111C53.2275 32.4784 53.1978 32.3474 53.1406 32.2278C53.0834 32.1081 53.0002 32.0027 52.8969 31.9194C52.7937 31.8361 52.6732 31.7769 52.5441 31.7462C52.4151 31.7156 52.2808 31.7142 52.1511 31.7422Z" fill="#E84133"/>
<path d="M40 36.9512C38.1106 36.9503 36.2634 37.5098 34.692 38.559C33.1207 39.6081 31.8958 41.0998 31.1723 42.8452C30.4489 44.5906 30.2594 46.5114 30.6277 48.3645C30.9961 50.2177 31.9059 51.9199 33.2419 53.2559C34.5779 54.592 36.2802 55.5017 38.1333 55.8701C39.9865 56.2385 41.9072 56.049 43.6527 55.3255C45.3981 54.6021 46.8897 53.3772 47.9389 51.8058C48.988 50.2345 49.5475 48.3872 49.5467 46.4978C49.5443 43.9666 48.5378 41.5398 46.7479 39.7499C44.9581 37.9601 42.5312 36.9535 40 36.9512ZM40 54.3112C38.4547 54.3112 36.944 53.8529 35.6591 52.9944C34.3742 52.1358 33.3728 50.9156 32.7814 49.4879C32.19 48.0602 32.0353 46.4892 32.3368 44.9735C32.6383 43.4579 33.3824 42.0657 34.4751 40.973C35.5679 39.8803 36.9601 39.1361 38.4757 38.8346C39.9913 38.5332 41.5623 38.6879 42.99 39.2793C44.4177 39.8706 45.638 40.8721 46.4965 42.157C47.3551 43.4419 47.8133 44.9525 47.8133 46.4978C47.811 48.5693 46.987 50.5553 45.5223 52.0201C44.0575 53.4849 42.0715 54.3088 40 54.3112Z" fill="#E84133"/>
<path d="M43.4711 45.6311H40.8889V43.0267C40.8441 42.8303 40.734 42.655 40.5765 42.5293C40.4191 42.4037 40.2236 42.3353 40.0222 42.3353C39.8208 42.3353 39.6254 42.4037 39.4679 42.5293C39.3104 42.655 39.2003 42.8303 39.1556 43.0267V46.4978C39.1556 46.7336 39.2492 46.9596 39.4159 47.1263C39.5826 47.293 39.8087 47.3867 40.0444 47.3867H43.5156C43.6452 47.4147 43.7795 47.4133 43.9086 47.3826C44.0376 47.3519 44.1582 47.2928 44.2614 47.2095C44.3646 47.1261 44.4479 47.0208 44.5051 46.9011C44.5623 46.7814 44.5919 46.6505 44.5919 46.5178C44.5919 46.3852 44.5623 46.2542 44.5051 46.1345C44.4479 46.0148 44.3646 45.9095 44.2614 45.8261C44.1582 45.7428 44.0376 45.6837 43.9086 45.653C43.7795 45.6223 43.6452 45.6209 43.5156 45.6489L43.4711 45.6311Z" fill="#E84133"/>
</g>
<defs>
<clipPath id="clip0">
<rect width="80" height="80" fill="white"/>
</clipPath>
</defs>
</svg>
