<svg width="80" height="80" viewBox="0 0 80 80" fill="none" xmlns="http://www.w3.org/2000/svg">
<g clip-path="url(#clip0)">
<path d="M40 1.77778C47.5596 1.77778 54.9495 4.01947 61.2351 8.21938C67.5207 12.4193 72.4198 18.3888 75.3127 25.373C78.2057 32.3572 78.9626 40.0424 77.4878 47.4568C76.013 54.8712 72.3727 61.6817 67.0272 67.0272C61.6817 72.3727 54.8712 76.013 47.4568 77.4878C40.0424 78.9626 32.3572 78.2057 25.373 75.3127C18.3888 72.4198 12.4193 67.5207 8.21937 61.2351C4.01946 54.9495 1.77777 47.5596 1.77777 40C1.78953 29.8664 5.82028 20.1513 12.9858 12.9858C20.1513 5.82029 29.8664 1.78954 40 1.77778ZM40 0C32.0887 0 24.3551 2.34596 17.7772 6.74122C11.1992 11.1365 6.07231 17.3836 3.04481 24.6927C0.0173009 32.0017 -0.774833 40.0444 0.768576 47.8036C2.31199 55.5629 6.12162 62.6902 11.7157 68.2843C17.3098 73.8784 24.4371 77.688 32.1964 79.2314C39.9556 80.7748 47.9983 79.9827 55.3073 76.9552C62.6164 73.9277 68.8635 68.8008 73.2588 62.2228C77.654 55.6448 80 47.9113 80 40C80 29.3913 75.7857 19.2172 68.2843 11.7157C60.7828 4.21427 50.6086 0 40 0V0Z" fill="#E84133"/>
<path d="M60.6267 45.4444C60.2708 45.4443 59.9165 45.4922 59.5733 45.5866V32.7822C59.5667 32.5973 59.5072 32.4182 59.402 32.2661C59.2968 32.1139 59.1502 31.995 58.9796 31.9235C58.809 31.852 58.6215 31.8308 58.4393 31.8625C58.257 31.8942 58.0876 31.9773 57.9511 32.1022C57.6824 32.3657 57.3418 32.5441 56.9721 32.6148C56.6024 32.6855 56.2201 32.6455 55.873 32.4998C55.526 32.3541 55.2297 32.1091 55.0214 31.7956C54.813 31.4822 54.7019 31.1141 54.7019 30.7377C54.7019 30.3613 54.813 29.9933 55.0214 29.6799C55.2297 29.3664 55.526 29.1214 55.873 28.9757C56.2201 28.83 56.6024 28.7899 56.9721 28.8607C57.3418 28.9314 57.6824 29.1097 57.9511 29.3733C58.0875 29.4945 58.2554 29.5746 58.4355 29.6042C58.6156 29.6338 58.8003 29.6118 58.9683 29.5406C59.1363 29.4693 59.2807 29.3519 59.3846 29.202C59.4886 29.052 59.5479 28.8756 59.5556 28.6933V21.3822C59.551 21.1349 59.4507 20.899 59.2758 20.7241C59.101 20.5492 58.8651 20.449 58.6178 20.4444H52.5556C52.65 20.1013 52.6979 19.747 52.6978 19.3911C52.697 18.8452 52.5792 18.3059 52.3523 17.8095C52.1255 17.313 51.7947 16.871 51.3825 16.5132C50.9703 16.1554 50.4862 15.8902 49.9627 15.7354C49.4393 15.5806 48.8888 15.5398 48.3483 15.6158C47.8077 15.6919 47.2898 15.8829 46.8294 16.1761C46.369 16.4693 45.9768 16.8578 45.6793 17.3154C45.3817 17.773 45.1858 18.2891 45.1046 18.8289C45.0235 19.3686 45.0591 19.9195 45.2089 20.4444H32.7644C32.5778 20.4473 32.3961 20.5045 32.2415 20.6091C32.0869 20.7137 31.9662 20.861 31.894 21.0332C31.8218 21.2053 31.8014 21.3947 31.8353 21.5783C31.8691 21.7618 31.9557 21.9315 32.0844 22.0666C32.348 22.3354 32.5263 22.6759 32.5971 23.0456C32.6678 23.4153 32.6278 23.7977 32.4821 24.1447C32.3363 24.4918 32.0914 24.788 31.7779 24.9964C31.4644 25.2047 31.0964 25.3159 30.72 25.3159C30.3436 25.3159 29.9756 25.2047 29.6621 24.9964C29.3486 24.788 29.1037 24.4918 28.9579 24.1447C28.8122 23.7977 28.7722 23.4153 28.8429 23.0456C28.9137 22.6759 29.092 22.3354 29.3556 22.0666C29.4815 21.9319 29.5662 21.764 29.5996 21.5826C29.633 21.4013 29.6137 21.2141 29.544 21.0434C29.4743 20.8727 29.3571 20.7255 29.2064 20.6194C29.0556 20.5132 28.8776 20.4525 28.6933 20.4444H21.3822C21.1349 20.449 20.899 20.5492 20.7242 20.7241C20.5493 20.899 20.449 21.1349 20.4444 21.3822V27.0622C20.1013 26.9677 19.747 26.9199 19.3911 26.92C18.3786 26.92 17.4075 27.3222 16.6915 28.0382C15.9756 28.7541 15.5733 29.7252 15.5733 30.7377C15.5733 31.7503 15.9756 32.7213 16.6915 33.4373C17.4075 34.1533 18.3786 34.5555 19.3911 34.5555C19.747 34.5556 20.1013 34.5078 20.4444 34.4133V47.2177C20.4493 47.4035 20.5076 47.5839 20.6125 47.7372C20.7174 47.8906 20.8644 48.0104 21.0357 48.0822C21.2071 48.154 21.3955 48.1748 21.5784 48.1421C21.7613 48.1094 21.9308 48.0245 22.0667 47.8977C22.3354 47.6342 22.676 47.4559 23.0457 47.3851C23.4154 47.3144 23.7977 47.3544 24.1447 47.5001C24.4918 47.6459 24.7881 47.8908 24.9964 48.2043C25.2048 48.5178 25.3159 48.8858 25.3159 49.2622C25.3159 49.6386 25.2048 50.0066 24.9964 50.3201C24.7881 50.6335 24.4918 50.8785 24.1447 51.0242C23.7977 51.17 23.4154 51.21 23.0457 51.1392C22.676 51.0685 22.3354 50.8902 22.0667 50.6266C21.9308 50.4999 21.7613 50.415 21.5784 50.3823C21.3955 50.3496 21.2071 50.3704 21.0357 50.4422C20.8644 50.514 20.7174 50.6338 20.6125 50.7872C20.5076 50.9405 20.4493 51.1209 20.4444 51.3066V58.6177C20.449 58.865 20.5493 59.1009 20.7242 59.2758C20.899 59.4507 21.1349 59.551 21.3822 59.5555H27.0622C26.9677 59.8987 26.9199 60.2529 26.92 60.6089C26.92 61.6214 27.3222 62.5925 28.0382 63.3084C28.7542 64.0244 29.7252 64.4266 30.7378 64.4266C31.7503 64.4266 32.7214 64.0244 33.4374 63.3084C34.1533 62.5925 34.5556 61.6214 34.5556 60.6089C34.5556 60.2529 34.5078 59.8987 34.4133 59.5555H46.8356C47.0204 59.5489 47.1995 59.4894 47.3517 59.3842C47.5038 59.279 47.6227 59.1324 47.6942 58.9618C47.7657 58.7912 47.7869 58.6037 47.7553 58.4214C47.7236 58.2392 47.6404 58.0698 47.5156 57.9333C47.252 57.6646 47.0737 57.324 47.0029 56.9543C46.9322 56.5846 46.9722 56.2023 47.1179 55.8552C47.2637 55.5082 47.5086 55.2119 47.8221 55.0035C48.1356 54.7952 48.5036 54.684 48.88 54.684C49.2564 54.684 49.6244 54.7952 49.9379 55.0035C50.2514 55.2119 50.4963 55.5082 50.6421 55.8552C50.7878 56.2023 50.8278 56.5846 50.7571 56.9543C50.6863 57.324 50.508 57.6646 50.2444 57.9333C50.1177 58.0691 50.0328 58.2387 50.0001 58.4216C49.9674 58.6044 49.9882 58.7929 50.06 58.9642C50.1318 59.1356 50.2516 59.2826 50.405 59.3874C50.5583 59.4923 50.7387 59.5507 50.9244 59.5555H58.6178C58.7433 59.5555 58.8675 59.5308 58.9835 59.4828C59.0994 59.4348 59.2047 59.3644 59.2935 59.2757C59.3822 59.1869 59.4526 59.0816 59.5006 58.9656C59.5486 58.8497 59.5733 58.7255 59.5733 58.6V52.9377C59.9165 53.0322 60.2708 53.0801 60.6267 53.08C61.6392 53.08 62.6103 52.6777 63.3262 51.9618C64.0422 51.2458 64.4444 50.2747 64.4444 49.2622C64.4444 48.2496 64.0422 47.2786 63.3262 46.5626C62.6103 45.8466 61.6392 45.4444 60.6267 45.4444ZM40.9556 22.3333H46.8356C47.0222 22.3304 47.2039 22.2732 47.3585 22.1686C47.5131 22.064 47.6339 21.9167 47.706 21.7445C47.7782 21.5724 47.7986 21.383 47.7647 21.1994C47.7309 21.0159 47.6443 20.8462 47.5156 20.7111C47.252 20.4423 47.0737 20.1018 47.0029 19.7321C46.9322 19.3624 46.9722 18.98 47.1179 18.633C47.2637 18.286 47.5086 17.9897 47.8221 17.7813C48.1356 17.573 48.5036 17.4618 48.88 17.4618C49.2564 17.4618 49.6244 17.573 49.9379 17.7813C50.2514 17.9897 50.4963 18.286 50.6421 18.633C50.7878 18.98 50.8278 19.3624 50.7571 19.7321C50.6863 20.1018 50.508 20.4423 50.2444 20.7111C50.1177 20.8469 50.0328 21.0164 50.0001 21.1993C49.9674 21.3822 49.9882 21.5707 50.06 21.742C50.1318 21.9134 50.2516 22.0603 50.405 22.1652C50.5583 22.2701 50.7387 22.3285 50.9244 22.3333H57.6667V27.0622C57.3235 26.9677 56.9692 26.9199 56.6133 26.92C56.112 26.92 55.6155 27.0187 55.1523 27.2106C54.6891 27.4024 54.2683 27.6837 53.9138 28.0382C53.5592 28.3927 53.278 28.8135 53.0862 29.2767C52.8943 29.7399 52.7956 30.2364 52.7956 30.7377C52.7956 31.2391 52.8943 31.7355 53.0862 32.1987C53.278 32.6619 53.5592 33.0828 53.9138 33.4373C54.2683 33.7918 54.6891 34.073 55.1523 34.2649C55.6155 34.4568 56.112 34.5555 56.6133 34.5555C56.9692 34.5556 57.3235 34.5078 57.6667 34.4133V39.0444H51C50.8139 39.0484 50.6329 39.1062 50.4789 39.2107C50.3249 39.3153 50.2044 39.4622 50.1321 39.6337C50.0597 39.8052 50.0385 39.994 50.0711 40.1773C50.1037 40.3606 50.1886 40.5305 50.3156 40.6666C50.6668 41.0214 50.8634 41.5007 50.8622 42C50.8747 42.2584 50.8346 42.5167 50.7443 42.7591C50.654 43.0016 50.5154 43.2232 50.3369 43.4105C50.1584 43.5978 49.9437 43.7469 49.7059 43.8488C49.4681 43.9507 49.2121 44.0032 48.9533 44.0032C48.6946 44.0032 48.4386 43.9507 48.2008 43.8488C47.9629 43.7469 47.7483 43.5978 47.5698 43.4105C47.3913 43.2232 47.2527 43.0016 47.1624 42.7591C47.0721 42.5167 47.032 42.2584 47.0444 42C47.0433 41.5007 47.2399 41.0214 47.5911 40.6666C47.7162 40.5299 47.7994 40.3601 47.8309 40.1774C47.8624 39.9948 47.8408 39.8069 47.7688 39.6362C47.6967 39.4654 47.5772 39.3189 47.4244 39.214C47.2716 39.1091 47.0919 39.0503 46.9067 39.0444H40.9556V34.3155C41.2965 34.4137 41.6496 34.463 42.0044 34.4622C42.5171 34.4797 43.028 34.3938 43.5067 34.2097C43.9854 34.0256 44.4222 33.747 44.791 33.3906C45.1598 33.0341 45.4531 32.6071 45.6534 32.1349C45.8538 31.6628 45.957 31.1551 45.957 30.6422C45.957 30.1293 45.8538 29.6216 45.6534 29.1494C45.4531 28.6773 45.1598 28.2502 44.791 27.8938C44.4222 27.5373 43.9854 27.2588 43.5067 27.0747C43.028 26.8906 42.5171 26.8047 42.0044 26.8222C41.6496 26.8213 41.2965 26.8707 40.9556 26.9689V22.3333ZM20.7111 32.1111C20.4424 32.3746 20.1018 32.553 19.7321 32.6237C19.3624 32.6944 18.9801 32.6544 18.633 32.5087C18.286 32.363 17.9897 32.118 17.7814 31.8045C17.573 31.491 17.4619 31.123 17.4619 30.7466C17.4619 30.3702 17.573 30.0022 17.7814 29.6887C17.9897 29.3753 18.286 29.1303 18.633 28.9846C18.9801 28.8388 19.3624 28.7988 19.7321 28.8696C20.1018 28.9403 20.4424 29.1186 20.7111 29.3822C20.8469 29.509 21.0165 29.5938 21.1994 29.6265C21.3823 29.6593 21.5707 29.6385 21.7421 29.5666C21.9134 29.4948 22.0604 29.375 22.1653 29.2217C22.2701 29.0683 22.3285 28.8879 22.3333 28.7022V22.3333H27.0622C26.9677 22.6764 26.9199 23.0307 26.92 23.3866C26.92 24.3992 27.3222 25.3702 28.0382 26.0862C28.7542 26.8022 29.7252 27.2044 30.7378 27.2044C31.7503 27.2044 32.7214 26.8022 33.4374 26.0862C34.1533 25.3702 34.5556 24.3992 34.5556 23.3866C34.5556 23.0307 34.5078 22.6764 34.4133 22.3333H39.0444V28.5955C39.0484 28.7816 39.1062 28.9626 39.2108 29.1166C39.3153 29.2706 39.4622 29.3911 39.6338 29.4634C39.8053 29.5358 39.9941 29.557 40.1773 29.5244C40.3606 29.4919 40.5306 29.407 40.6667 29.28C40.9352 29.0158 41.2757 28.8368 41.6456 28.7656C42.0155 28.6943 42.3981 28.734 42.7455 28.8795C43.093 29.0251 43.3896 29.27 43.5982 29.5836C43.8069 29.8973 43.9182 30.2655 43.9182 30.6422C43.9182 31.0189 43.8069 31.3871 43.5982 31.7007C43.3896 32.0143 43.093 32.2593 42.7455 32.4049C42.3981 32.5504 42.0155 32.59 41.6456 32.5188C41.2757 32.4476 40.9352 32.2686 40.6667 32.0044C40.5306 31.8774 40.3606 31.7925 40.1773 31.7599C39.9941 31.7274 39.8053 31.7486 39.6338 31.8209C39.4622 31.8933 39.3153 32.0138 39.2108 32.1678C39.1062 32.3218 39.0484 32.5027 39.0444 32.6889V39.0444H34.3156C34.4137 38.7035 34.4631 38.3503 34.4622 37.9955C34.4797 37.4829 34.3938 36.972 34.2097 36.4933C34.0256 36.0146 33.7471 35.5778 33.3906 35.209C33.0342 34.8401 32.6072 34.5468 32.135 34.3465C31.6628 34.1462 31.1551 34.043 30.6422 34.043C30.1293 34.043 29.6216 34.1462 29.1495 34.3465C28.6773 34.5468 28.2503 34.8401 27.8938 35.209C27.5374 35.5778 27.2588 36.0146 27.0747 36.4933C26.8906 36.972 26.8047 37.4829 26.8222 37.9955C26.8214 38.3503 26.8708 38.7035 26.9689 39.0444H22.3333V32.7822C22.3285 32.5965 22.2701 32.4161 22.1653 32.2627C22.0604 32.1094 21.9134 31.9896 21.7421 31.9177C21.5707 31.8459 21.3823 31.8251 21.1994 31.8578C21.0165 31.8906 20.8469 31.9754 20.7111 32.1022V32.1111ZM39.0444 57.6755H32.7822C32.5965 57.6803 32.4161 57.7387 32.2628 57.8436C32.1094 57.9485 31.9896 58.0954 31.9178 58.2668C31.846 58.4381 31.8252 58.6266 31.8579 58.8095C31.8906 58.9924 31.9754 59.1619 32.1022 59.2977C32.3658 59.5665 32.5441 59.907 32.6148 60.2767C32.6856 60.6464 32.6456 61.0288 32.4998 61.3758C32.3541 61.7229 32.1091 62.0191 31.7957 62.2275C31.4822 62.4359 31.1142 62.547 30.7378 62.547C30.3614 62.547 29.9934 62.4359 29.6799 62.2275C29.3664 62.0191 29.1215 61.7229 28.9757 61.3758C28.83 61.0288 28.79 60.6464 28.8607 60.2767C28.9315 59.907 29.1098 59.5665 29.3733 59.2977C29.5001 59.1619 29.585 58.9924 29.6177 58.8095C29.6504 58.6266 29.6296 58.4381 29.5578 58.2668C29.4859 58.0954 29.3662 57.9485 29.2128 57.8436C29.0595 57.7387 28.8791 57.6803 28.6933 57.6755H22.3333V52.9377C22.6765 53.0322 23.0308 53.0801 23.3867 53.08C24.3992 53.08 25.3703 52.6777 26.0862 51.9618C26.8022 51.2458 27.2044 50.2747 27.2044 49.2622C27.2044 48.2496 26.8022 47.2786 26.0862 46.5626C25.3703 45.8466 24.3992 45.4444 23.3867 45.4444C23.0308 45.4443 22.6765 45.4922 22.3333 45.5866V40.9555H28.5956C28.7817 40.9515 28.9626 40.8938 29.1167 40.7892C29.2707 40.6846 29.3911 40.5377 29.4635 40.3662C29.5358 40.1947 29.557 40.0059 29.5245 39.8226C29.4919 39.6393 29.407 39.4694 29.28 39.3333C29.0158 39.0648 28.8369 38.7242 28.7656 38.3544C28.6944 37.9845 28.734 37.6018 28.8796 37.2544C29.0251 36.907 29.2701 36.6104 29.5837 36.4017C29.8973 36.1931 30.2656 36.0818 30.6422 36.0818C31.0189 36.0818 31.3872 36.1931 31.7008 36.4017C32.0144 36.6104 32.2593 36.907 32.4049 37.2544C32.5504 37.6018 32.5901 37.9845 32.5188 38.3544C32.4476 38.7242 32.2686 39.0648 32.0044 39.3333C31.8794 39.4701 31.7962 39.6399 31.7647 39.8225C31.7332 40.0051 31.7547 40.193 31.8268 40.3638C31.8988 40.5345 32.0184 40.681 32.1712 40.7859C32.324 40.8908 32.5036 40.9497 32.6889 40.9555H39.0444V45.6844C38.7035 45.5863 38.3504 45.5369 37.9956 45.5377C37.4829 45.5203 36.9721 45.6061 36.4933 45.7902C36.0146 45.9743 35.5778 46.2529 35.209 46.6093C34.8402 46.9658 34.5469 47.3928 34.3466 47.865C34.1462 48.3372 34.043 48.8448 34.043 49.3577C34.043 49.8707 34.1462 50.3783 34.3466 50.8505C34.5469 51.3227 34.8402 51.7497 35.209 52.1062C35.5778 52.4626 36.0146 52.7412 36.4933 52.9253C36.9721 53.1094 37.4829 53.1952 37.9956 53.1777C38.3504 53.1786 38.7035 53.1292 39.0444 53.0311V57.6755ZM60.6267 51.1822C60.1278 51.1814 59.6492 50.9851 59.2933 50.6355C59.1575 50.5087 58.988 50.4239 58.8051 50.3912C58.6222 50.3585 58.4337 50.3793 58.2624 50.4511C58.091 50.5229 57.9441 50.6427 57.8392 50.7961C57.7343 50.9494 57.6759 51.1298 57.6711 51.3155V57.6755H52.56C52.6545 57.3324 52.7023 56.9781 52.7022 56.6222C52.7015 56.0764 52.5837 55.537 52.3568 55.0406C52.1299 54.5441 51.7992 54.1021 51.387 53.7443C50.9748 53.3865 50.4906 53.1213 49.9672 52.9665C49.4438 52.8117 48.8932 52.7709 48.3527 52.8469C47.8122 52.923 47.2943 53.114 46.8338 53.4072C46.3734 53.7004 45.9812 54.0889 45.6837 54.5465C45.3862 55.0041 45.1902 55.5202 45.1091 56.06C45.0279 56.5998 45.0635 57.1507 45.2133 57.6755H40.9556V51.4044C40.9516 51.2183 40.8938 51.0373 40.7892 50.8833C40.6847 50.7293 40.5378 50.6089 40.3662 50.5365C40.1947 50.4641 40.0059 50.4429 39.8227 50.4755C39.6394 50.5081 39.4694 50.593 39.3333 50.72C39.0648 50.9842 38.7243 51.1631 38.3544 51.2344C37.9845 51.3056 37.6019 51.266 37.2545 51.1204C36.907 50.9749 36.6104 50.7299 36.4018 50.4163C36.1931 50.1027 36.0818 49.7344 36.0818 49.3577C36.0818 48.9811 36.1931 48.6128 36.4018 48.2992C36.6104 47.9856 36.907 47.7406 37.2545 47.5951C37.6019 47.4495 37.9845 47.4099 38.3544 47.4811C38.7243 47.5524 39.0648 47.7313 39.3333 47.9955C39.4701 48.1206 39.6399 48.2038 39.8225 48.2353C40.0052 48.2668 40.193 48.2452 40.3638 48.1732C40.5346 48.1011 40.6811 47.9816 40.786 47.8288C40.8908 47.676 40.9497 47.4963 40.9556 47.3111V40.9555H45.3022C45.2041 41.2965 45.1547 41.6496 45.1556 42.0044C45.1381 42.517 45.2239 43.0279 45.408 43.5066C45.5921 43.9854 45.8707 44.4222 46.2272 44.791C46.5836 45.1598 47.0106 45.4531 47.4828 45.6534C47.955 45.8537 48.4626 45.9569 48.9756 45.9569C49.4885 45.9569 49.9961 45.8537 50.4683 45.6534C50.9405 45.4531 51.3675 45.1598 51.724 44.791C52.0804 44.4222 52.359 43.9854 52.5431 43.5066C52.7272 43.0279 52.813 42.517 52.7956 42.0044C52.7964 41.6496 52.747 41.2965 52.6489 40.9555H57.6667V47.2177C57.6696 47.4044 57.7268 47.5861 57.8314 47.7407C57.9359 47.8953 58.0833 48.016 58.2554 48.0882C58.4276 48.1603 58.617 48.1808 58.8005 48.1469C58.9841 48.1131 59.1538 48.0265 59.2889 47.8977C59.5129 47.6781 59.7875 47.517 60.0884 47.4285C60.3894 47.3401 60.7076 47.3272 61.0147 47.3908C61.3219 47.4545 61.6087 47.5927 61.8498 47.7934C62.0909 47.9942 62.2788 48.2511 62.3971 48.5417C62.5154 48.8322 62.5603 49.1474 62.5279 49.4594C62.4956 49.7715 62.3869 50.0707 62.2115 50.3308C62.0361 50.5909 61.7993 50.8038 61.5222 50.9507C61.245 51.0976 60.9359 51.1741 60.6222 51.1733L60.6267 51.1822Z" fill="#E84133"/>
</g>
<defs>
<clipPath id="clip0">
<rect width="80" height="80" fill="white"/>
</clipPath>
</defs>
</svg>
