<svg width="80" height="80" viewBox="0 0 80 80" fill="none" xmlns="http://www.w3.org/2000/svg">
<g clip-path="url(#clip0)">
<path d="M40 1.77778C47.5596 1.77778 54.9495 4.01947 61.2351 8.21938C67.5207 12.4193 72.4198 18.3888 75.3127 25.373C78.2057 32.3572 78.9626 40.0424 77.4878 47.4568C76.013 54.8712 72.3727 61.6817 67.0272 67.0272C61.6817 72.3727 54.8712 76.013 47.4568 77.4878C40.0424 78.9626 32.3572 78.2057 25.373 75.3127C18.3888 72.4198 12.4193 67.5207 8.21936 61.2351C4.01945 54.9495 1.77776 47.5596 1.77776 40C1.78952 29.8664 5.82027 20.1513 12.9858 12.9858C20.1513 5.82029 29.8664 1.78954 40 1.77778ZM40 0C32.0887 0 24.3551 2.34596 17.7772 6.74122C11.1992 11.1365 6.0723 17.3836 3.0448 24.6927C0.0172914 32.0017 -0.774842 40.0444 0.768567 47.8036C2.31198 55.5629 6.12161 62.6902 11.7157 68.2843C17.3098 73.8784 24.4371 77.688 32.1964 79.2314C39.9556 80.7748 47.9983 79.9827 55.3073 76.9552C62.6164 73.9277 68.8635 68.8008 73.2588 62.2228C77.654 55.6448 80 47.9113 80 40C80 29.3913 75.7857 19.2172 68.2843 11.7157C60.7828 4.21427 50.6086 0 40 0V0Z" fill="#E84133"/>
<path d="M47.2844 59.0532H47.1156C47.061 59.0395 47.0075 59.0217 46.9556 58.9999C46.9013 58.9813 46.8504 58.9543 46.8044 58.9199C46.7562 58.8893 46.7115 58.8536 46.6711 58.8133C46.6319 58.7735 46.5962 58.7303 46.5644 58.6844C46.5334 58.6364 46.5067 58.5858 46.4844 58.5332C46.4419 58.4272 46.4193 58.3142 46.4178 58.1999C46.4112 58.1438 46.4112 58.0871 46.4178 58.031C46.4273 57.9744 46.4437 57.9192 46.4667 57.8666C46.4889 57.8154 46.5157 57.7663 46.5467 57.7199C46.6079 57.6231 46.6899 57.5412 46.7867 57.4799C46.8346 57.4489 46.8852 57.4221 46.9378 57.3999C46.9925 57.3704 47.0507 57.348 47.1111 57.3332C47.2515 57.3064 47.3963 57.3137 47.5333 57.3547C47.6702 57.3957 47.7953 57.4692 47.8978 57.5688C47.9381 57.6092 47.9739 57.6539 48.0044 57.7021C48.0354 57.7485 48.0622 57.7976 48.0844 57.8488C48.1054 57.9021 48.1218 57.9571 48.1333 58.0132C48.1377 58.0695 48.1377 58.1259 48.1333 58.1821C48.1379 58.2383 48.1379 58.2948 48.1333 58.351C48.1218 58.4071 48.1054 58.4622 48.0844 58.5155C48.0622 58.5681 48.0355 58.6186 48.0044 58.6666C47.9727 58.7126 47.937 58.7557 47.8978 58.7955C47.8574 58.8358 47.8127 58.8716 47.7644 58.9021C47.7185 58.9365 47.6676 58.9635 47.6133 58.9821C47.5614 59.0039 47.5079 59.0217 47.4533 59.0355C47.3976 59.0456 47.3411 59.0515 47.2844 59.0532Z" fill="#E84133"/>
<path d="M44.0756 59.0533H32.9244C32.7943 59.083 32.6591 59.0829 32.5289 59.0532C32.3988 59.0234 32.277 58.9648 32.1726 58.8815C32.0682 58.7982 31.984 58.6925 31.926 58.5722C31.8681 58.4519 31.838 58.3201 31.838 58.1866C31.838 58.0531 31.8681 57.9213 31.926 57.801C31.984 57.6807 32.0682 57.575 32.1726 57.4917C32.277 57.4085 32.3988 57.3498 32.5289 57.3201C32.6591 57.2903 32.7943 57.2903 32.9244 57.32H44.0756C44.2057 57.2903 44.3409 57.2903 44.4711 57.3201C44.6012 57.3498 44.723 57.4085 44.8274 57.4917C44.9318 57.575 45.016 57.6807 45.074 57.801C45.1319 57.9213 45.162 58.0531 45.162 58.1866C45.162 58.3201 45.1319 58.4519 45.074 58.5722C45.016 58.6925 44.9318 58.7982 44.8274 58.8815C44.723 58.9648 44.6012 59.0234 44.4711 59.0532C44.3409 59.0829 44.2057 59.083 44.0756 59.0533Z" fill="#E84133"/>
<path d="M55.3822 24.1734H51C50.4238 22.6265 49.4262 21.2717 48.12 20.2623C46.0844 18.6667 43.2444 17.7778 40.12 17.7778H40.0622C36.9511 17.7778 34.0978 18.6934 32.0622 20.3289C30.9319 21.226 30.0309 22.3789 29.4336 23.6926C28.8363 25.0062 28.5597 26.443 28.6267 27.8845C28.6267 27.8845 28.5911 31.7245 28.5911 31.8312C28.5907 34.2338 29.3409 36.5766 30.737 38.5321C32.1331 40.4875 34.1052 41.9579 36.3778 42.7378V45.0045H31.8844C30.3921 45.0057 28.9612 45.5987 27.9055 46.6535C26.8499 47.7084 26.2557 49.1388 26.2533 50.6312V61.3556C26.2589 61.5822 26.3507 61.7981 26.5102 61.9592C26.6696 62.1203 26.8846 62.2144 27.1111 62.2223H53.0711C53.303 62.2223 53.5258 62.1318 53.6919 61.9698C53.858 61.8079 53.9542 61.5875 53.96 61.3556V50.6312C53.9576 49.1388 53.3635 47.7084 52.3078 46.6535C51.2521 45.5987 49.8212 45.0057 48.3289 45.0045H43.8311V42.7378C46.0993 41.9552 48.0677 40.486 49.4631 38.534C50.8584 36.5819 51.6115 34.2439 51.6178 31.8445C51.6178 31.7378 51.5778 29.7867 51.5778 29.7867H55.3822C55.7602 29.8018 56.1373 29.7403 56.4909 29.606C56.8446 29.4718 57.1675 29.2675 57.4402 29.0053C57.713 28.7432 57.9299 28.4287 58.0782 28.0807C58.2264 27.7327 58.3028 27.3583 58.3028 26.9801C58.3028 26.6018 58.2264 26.2274 58.0782 25.8794C57.9299 25.5314 57.713 25.2169 57.4402 24.9548C57.1675 24.6927 56.8446 24.4883 56.4909 24.3541C56.1373 24.2198 55.7602 24.1583 55.3822 24.1734ZM38.1156 28.0489V27.6312C38.1156 27.1597 38.3029 26.7075 38.6362 26.3741C38.9696 26.0407 39.4218 25.8534 39.8933 25.8534C40.3648 25.8534 40.817 26.0407 41.1504 26.3741C41.4838 26.7075 41.6711 27.1597 41.6711 27.6312V28.0489H38.1156ZM49.84 29.7778V31.7556C47.1733 31.5956 44.4133 30.7201 42.1155 29.7778H49.84ZM33.1511 21.6801C34.88 20.2934 37.3378 19.5245 40.0667 19.5156H40.1244C42.8578 19.5156 45.3155 20.2623 47.0444 21.6267C47.9698 22.3497 48.7073 23.285 49.1947 24.3533C49.6821 25.4217 49.9049 26.5918 49.8444 27.7645V28.0489H43.4089V27.6312C43.4089 26.6988 43.0385 25.8046 42.3792 25.1453C41.7199 24.486 40.8257 24.1156 39.8933 24.1156C38.9609 24.1156 38.0667 24.486 37.4075 25.1453C36.7482 25.8046 36.3778 26.6988 36.3778 27.6312V28.0489H30.3689V27.8712C30.3073 26.6924 30.5275 25.5159 31.0113 24.4392C31.4952 23.3625 32.2287 22.4166 33.1511 21.6801ZM30.3689 31.6889V29.7778H33.2222C32.4868 30.6893 31.4917 31.3558 30.3689 31.6889ZM31.8844 46.7378H35.7467C34.9186 48.1296 33.9214 49.4134 32.7778 50.5601C30.7911 52.7334 28.5689 55.16 27.9911 59.24V50.6312C27.9923 49.5989 28.4029 48.6093 29.1327 47.8795C29.8626 47.1496 30.8522 46.739 31.8844 46.7378ZM29.6089 60.4845C29.8578 56.3245 31.9022 54.0889 34.0533 51.7334C35.3867 50.2578 36.7955 48.7378 37.6755 46.7378H42.5289C43.4178 48.7689 44.8267 50.3912 46.1955 51.9645C48.3155 54.4001 50.3289 56.7067 50.5955 60.4845H29.6089ZM52.2178 50.6312V59.3512C51.6578 55.5912 49.5511 53.1734 47.5067 50.8223C46.3358 49.5822 45.3114 48.2117 44.4533 46.7378H48.3244C49.3567 46.739 50.3463 47.1496 51.0761 47.8795C51.806 48.6093 52.2166 49.5989 52.2178 50.6312ZM42.0933 45.0045H38.1156V43.1823C39.4314 43.4134 40.7775 43.4134 42.0933 43.1823V45.0045ZM40.1067 41.6178C37.7917 41.6176 35.5519 40.7961 33.7859 39.2994C32.0198 37.8028 30.8421 35.7281 30.4622 33.4445C32.2844 33.1112 34.0178 31.8445 35.4133 29.7867H38C41.1111 31.3956 45.4933 33.2445 49.7378 33.4978C49.347 35.7694 48.1663 37.8298 46.4041 39.3155C44.6419 40.8012 42.4116 41.6166 40.1067 41.6178ZM55.3822 28.0489H51.5778V27.7912C51.5932 27.1605 51.5515 26.5298 51.4533 25.9067H55.3822C55.6663 25.9067 55.9387 26.0196 56.1396 26.2204C56.3405 26.4213 56.4533 26.6938 56.4533 26.9778C56.4533 27.2619 56.3405 27.5343 56.1396 27.7352C55.9387 27.9361 55.6663 28.0489 55.3822 28.0489Z" fill="#E84133"/>
</g>
<defs>
<clipPath id="clip0">
<rect width="80" height="80" fill="white"/>
</clipPath>
</defs>
</svg>
