<svg width="180" height="421" viewBox="0 0 180 421" fill="none" xmlns="http://www.w3.org/2000/svg">
<path d="M75.6532 0C75.5805 0.000906261 75.5085 0.0129071 75.4395 0.0355863H75.3968L-3.87865 26.163H-3.91428L-4.0638 26.2271L-4.21333 26.3623C-4.30391 26.4663 -4.36751 26.591 -4.39848 26.7253L-21.9868 110.047L-100.7 136.011L-100.849 136.075L-100.999 136.21C-101.091 136.313 -101.154 136.438 -101.184 136.573L-118.836 220.073L-197.692 246.058C-197.809 246.096 -197.915 246.165 -197.998 246.257C-198.077 246.352 -198.133 246.464 -198.162 246.584V246.62L-215.928 330.568C-215.956 330.703 -215.949 330.844 -215.908 330.976C-215.866 331.107 -215.793 331.227 -215.693 331.323L-154.127 389.122C-154.037 389.205 -153.926 389.264 -153.806 389.293C-153.759 389.3 -153.711 389.3 -153.664 389.293C-153.591 389.299 -153.517 389.299 -153.443 389.293L-74.5879 363.307L-13.3493 420.801C-13.2613 420.878 -13.1565 420.934 -13.0431 420.964H-12.979H-12.8224H-12.6657H-12.623L66.6525 394.837C66.771 394.796 66.8766 394.725 66.9587 394.63C67.0382 394.536 67.0943 394.424 67.1225 394.303V394.268L84.7108 310.946L163.538 284.982H163.573L163.723 284.918L163.844 284.804L163.887 284.769C163.961 284.674 164.015 284.565 164.043 284.448L181.76 200.522V200.486C181.792 200.365 181.792 200.237 181.76 200.116C181.723 199.997 181.657 199.89 181.567 199.803V199.767L120.329 142.281L137.938 58.753C137.974 58.6322 137.974 58.5037 137.938 58.3829C137.903 58.2634 137.837 58.1555 137.746 58.0697V58.0341L76.1516 0.2064C76.0614 0.122738 75.951 0.0638863 75.8312 0.0355863H75.6888L75.6532 0ZM57.4382 83.2007L-2.1412 27.252L74.5993 1.96436L57.4382 83.2007ZM58.9407 83.5424L76.1018 2.29887L135.695 58.2476L58.9407 83.5424ZM18.7725 96.7947L-2.0415 29.4939L56.4128 84.3751L18.7725 96.7947ZM-20.3276 109.677L-3.50838 29.9636L17.3127 97.2502L-20.3276 109.677ZM119.012 140.993L59.4178 85.0512L136.158 59.785L119.012 140.993ZM40.0565 165.576L19.2424 98.2893L56.8828 85.8839L40.0565 165.576ZM41.2314 167.462L58.3853 86.2256L117.965 142.174L41.2314 167.462ZM38.44 165.547L-19.5728 111.079L17.7756 98.7733L38.44 165.547ZM-39.3686 193.048L-98.9623 137.1L-22.2218 111.812L-39.3686 193.048ZM-37.8732 193.39L-20.7834 112.453L38.5896 168.195L-37.8732 193.39ZM-78.0414 206.628L-98.8626 139.342L-40.4011 194.223L-78.0414 206.628ZM-117.149 219.518L-100.322 139.804L-79.5083 207.112L-117.149 219.518ZM101.295 224.905L41.7014 168.971L118.442 143.683L101.295 224.905ZM141.883 212.358L121.062 145.071L179.538 199.995L141.883 212.358ZM102.79 225.261L119.617 145.548L140.438 212.834L102.79 225.261ZM22.0765 250.741L-37.4032 194.899L39.202 169.661L22.0765 250.741ZM23.6573 251.339L40.7472 170.252L100.227 226.094L23.6573 251.339ZM-56.7575 275.438L-77.5715 208.137L-39.9311 195.725L-56.7575 275.438ZM-55.5826 277.324L-38.4357 196.088L21.1579 252.036L-55.5826 277.324ZM163.182 281.181L142.368 213.895L180.001 201.497L163.182 281.181ZM-58.2243 275.922L-116.679 221.041L-79.0384 208.635L-58.2243 275.922ZM161.715 281.665L103.26 226.784L140.901 214.379L161.715 281.665ZM-136.368 303.103L-195.954 247.154L-119.214 221.859L-136.368 303.103ZM-74.4811 359.329L-116.579 223.261L-57.4767 278.776L-74.4811 359.329ZM-75.9408 359.813L-135.043 304.298L-118.032 223.71L-75.9408 359.813ZM83.6427 308.54L24.2697 252.798L100.725 227.603L83.6427 308.54ZM85.0668 309.181L102.228 227.944L161.822 283.893L85.0668 309.181ZM-154.048 387.022L-214.333 330.454L-196.987 248.321L-136.738 304.889L-154.048 387.022ZM4.50961 334.774L-55.0841 278.819L21.6208 253.531L4.50961 334.774ZM6.01208 335.109L23.1019 254.171L82.4749 309.914L6.01208 335.109ZM-34.1633 348.347L-55.02 281.06L3.4415 335.935L-34.1633 348.347ZM-73.2705 361.236L-56.4442 281.523L-35.623 348.81L-73.2705 361.236ZM-152.582 387.357L-135.428 306.12L-75.8411 362.069L-152.582 387.357ZM66.0259 392.567L6.44646 336.646L83.187 311.359L66.0259 392.567ZM-12.9149 417.15L-33.7076 349.856L3.9257 337.451L-12.9149 417.15ZM-11.74 419.028L5.41394 337.792L65.0005 393.741L-11.74 419.028ZM-14.3747 417.605L-72.8362 362.724L-35.1958 350.318L-14.3747 417.605Z" fill="#EF3327"/>
</svg>
