<?xml version="1.0" standalone="no"?>
<!DOCTYPE svg PUBLIC "-//W3C//DTD SVG 20010904//EN"
 "http://www.w3.org/TR/2001/REC-SVG-20010904/DTD/svg10.dtd">
<svg version="1.0" xmlns="http://www.w3.org/2000/svg"
 width="1599.000000pt" height="500.000000pt" viewBox="0 0 1599.000000 500.000000"
 preserveAspectRatio="xMidYMid meet">

<g transform="translate(0.000000,500.000000) scale(0.100000,-0.100000)"
fill="#000000" stroke="none">
<path d="M10130 4960 c0 -36 -2 -40 -25 -40 -25 0 -25 -1 -25 -80 0 -64 -3
-80 -15 -80 -11 0 -15 -11 -15 -40 0 -36 -2 -40 -25 -40 -22 0 -25 -4 -25 -40
0 -29 -4 -40 -15 -40 -11 0 -15 -11 -15 -40 0 -36 -2 -40 -25 -40 -22 0 -25
-4 -25 -40 0 -29 -4 -40 -15 -40 -11 0 -15 -11 -15 -40 0 -36 -2 -40 -25 -40
-25 0 -25 -1 -25 -80 0 -64 -3 -80 -15 -80 -11 0 -15 -11 -15 -40 0 -36 -2
-40 -25 -40 -22 0 -25 -4 -25 -40 0 -29 -4 -40 -15 -40 -11 0 -15 -11 -15 -40
0 -36 -2 -40 -25 -40 -22 0 -25 -4 -25 -40 0 -29 -4 -40 -15 -40 -11 0 -15
-11 -15 -40 0 -36 -2 -40 -25 -40 -25 0 -25 -1 -25 -80 0 -64 -3 -80 -15 -80
-11 0 -15 -11 -15 -40 0 -36 -2 -40 -26 -40 -24 0 -26 -2 -23 -42 l4 -43 -42
4 c-24 1 -43 -1 -43 -6 0 -5 14 -8 30 -5 34 5 43 -17 10 -25 -19 -5 -28 -23
-12 -23 5 0 33 13 63 30 30 16 62 30 72 30 9 0 17 7 17 15 0 10 11 15 33 16
l32 1 -28 10 c-15 5 -25 14 -21 19 7 12 44 12 44 -1 0 -5 11 -10 25 -10 29 0
34 16 8 23 -10 2 -6 3 10 1 33 -4 80 14 259 100 76 36 144 66 152 66 8 0 16 3
18 8 4 9 66 42 79 42 9 0 74 30 297 136 74 35 136 64 140 64 3 0 35 15 71 34
36 18 89 41 116 51 28 10 54 22 59 27 6 4 18 8 27 8 10 0 19 4 21 8 2 4 22 17
45 29 39 18 44 19 57 4 15 -17 116 -228 116 -242 0 -5 5 -9 10 -9 6 0 10 -8
10 -17 0 -10 17 -54 39 -98 21 -44 53 -111 70 -150 18 -38 36 -78 42 -87 5
-10 9 -25 9 -33 0 -8 5 -15 10 -15 6 0 10 -6 10 -13 0 -7 9 -33 21 -58 11 -24
31 -66 44 -94 13 -27 40 -85 59 -128 20 -42 46 -102 57 -132 11 -30 25 -55 30
-55 5 0 9 -18 9 -41 0 -22 4 -38 9 -34 10 6 41 -49 41 -72 0 -7 7 -13 15 -13
9 0 15 -9 15 -25 0 -13 5 -36 12 -50 9 -21 9 -28 -1 -34 -8 -5 -11 -17 -6 -30
5 -18 2 -21 -19 -21 -24 0 -26 -4 -26 -40 0 -33 3 -40 20 -40 14 0 20 7 20 23
1 21 1 21 12 3 8 -15 8 -21 0 -24 -7 -2 -12 -21 -12 -43 0 -39 0 -39 -40 -39
l-40 0 0 -40 c0 -33 -3 -40 -20 -40 -17 0 -20 -7 -20 -40 0 -33 -3 -40 -20
-40 -17 0 -20 -7 -20 -40 0 -33 -3 -40 -20 -40 -17 0 -20 -7 -20 -40 0 -35 3
-40 23 -41 21 -1 21 -1 -3 -8 -14 -4 -31 -3 -38 2 -7 5 -16 7 -19 3 -4 -4 -1
-11 6 -16 10 -6 4 -14 -25 -32 -74 -47 -144 -57 -144 -21 0 8 -6 27 -14 41 -8
15 -22 46 -31 70 -10 23 -22 42 -27 42 -4 0 -8 5 -8 12 0 16 -63 152 -72 156
-5 2 -8 8 -8 14 0 13 -15 46 -107 238 -41 85 -88 182 -103 215 -82 178 -154
322 -166 336 -13 15 -23 12 -102 -26 -228 -112 -298 -145 -310 -145 -6 0 -12
-4 -12 -8 0 -4 -17 -14 -37 -21 -39 -14 -154 -68 -418 -197 -139 -68 -150 -72
-167 -57 -10 9 -18 21 -18 27 0 7 -25 61 -55 121 -30 59 -55 114 -55 121 0 7
-10 14 -22 16 -13 2 -23 11 -24 21 -1 12 -1 13 3 2 5 -16 23 -21 23 -7 0 5
-10 28 -22 53 -12 24 -34 73 -48 109 -19 49 -30 65 -45 65 -16 0 -21 -8 -23
-42 -2 -29 -8 -43 -18 -43 -10 0 -14 -12 -14 -40 0 -22 -4 -40 -10 -40 -5 0
-10 -18 -10 -40 0 -29 -4 -40 -15 -40 -11 0 -15 -11 -15 -40 0 -36 -2 -40 -25
-40 -22 0 -25 -4 -25 -40 0 -29 -4 -40 -15 -40 -11 0 -15 -11 -15 -40 0 -36
-2 -40 -25 -40 -22 0 -25 -4 -25 -40 0 -29 -4 -40 -15 -40 -11 0 -15 -11 -15
-40 0 -29 -4 -40 -15 -40 -11 0 -15 -11 -15 -40 0 -22 -4 -40 -10 -40 -5 0
-10 -18 -10 -40 0 -29 -4 -40 -15 -40 -11 0 -15 -11 -15 -40 0 -36 -2 -40 -25
-40 -22 0 -25 -4 -25 -40 0 -29 -4 -40 -15 -40 -11 0 -15 -11 -15 -40 0 -36
-2 -40 -25 -40 -22 0 -25 -4 -25 -40 0 -29 -4 -40 -15 -40 -12 0 -15 -16 -15
-80 0 -79 0 -80 -25 -80 -22 0 -25 -4 -25 -40 0 -29 -4 -40 -15 -40 -11 0 -15
-11 -15 -40 0 -36 -2 -40 -25 -40 -22 0 -25 -4 -25 -40 0 -29 -4 -40 -15 -40
-11 0 -15 -11 -15 -40 0 -36 -2 -40 -25 -40 -25 0 -25 -1 -25 -80 0 -64 -3
-80 -15 -80 -11 0 -15 -11 -15 -40 0 -36 -2 -40 -25 -40 -22 0 -25 -4 -25 -40
0 -29 -4 -40 -15 -40 -11 0 -15 -11 -15 -40 0 -36 -2 -40 -25 -40 -22 0 -25
-4 -25 -40 0 -29 -4 -40 -15 -40 -11 0 -15 -11 -15 -40 0 -36 -2 -40 -25 -40
-25 0 -25 -1 -25 -80 0 -64 -3 -80 -15 -80 -11 0 -15 -11 -15 -40 0 -36 -2
-40 -25 -40 -22 0 -25 -4 -25 -40 0 -29 -4 -40 -15 -40 -11 0 -15 -11 -15 -40
0 -36 -2 -40 -25 -40 -22 0 -25 -4 -25 -40 0 -29 -4 -40 -15 -40 -11 0 -15
-11 -15 -40 0 -35 -3 -40 -24 -40 -17 0 -27 8 -36 33 -29 77 -31 80 -42 69 -8
-8 -6 -18 6 -36 19 -30 21 -52 4 -59 -7 -3 -1 -6 15 -6 l27 -1 0 -80 c0 -64
-3 -80 -15 -80 -11 0 -15 -11 -15 -40 0 -36 -2 -40 -25 -40 -22 0 -25 -4 -25
-40 0 -29 -4 -40 -15 -40 -11 0 -15 -11 -15 -40 0 -36 -2 -40 -25 -40 -22 0
-25 -4 -25 -40 0 -29 -4 -40 -15 -40 -12 0 -15 -13 -15 -60 l0 -60 3970 0
3970 0 0 2500 0 2500 -2930 0 -2930 0 0 -40z m-270 -1040 c0 -22 -4 -40 -10
-40 -5 0 -10 18 -10 40 0 22 5 40 10 40 6 0 10 -18 10 -40z m-10 -300 c0 -5
-10 -10 -22 -9 -22 0 -22 1 -3 9 11 5 21 9 23 9 1 1 2 -3 2 -9z m-75 -19 c3
-5 1 -12 -5 -16 -5 -3 -10 1 -10 9 0 18 6 21 15 7z m-328 -323 c-3 -7 -5 -2
-5 12 0 14 2 19 5 13 2 -7 2 -19 0 -25z m26 -30 c5 -18 -3 -48 -14 -48 -5 0
-9 14 -9 30 0 30 15 41 23 18z m30 -85 c-7 -2 -19 -2 -25 0 -7 3 -2 5 12 5 14
0 19 -2 13 -5z m57 -155 c0 -5 -4 -8 -10 -8 -5 0 -10 10 -10 23 0 18 2 19 10
7 5 -8 10 -18 10 -22z m-180 -208 c0 -22 -4 -40 -10 -40 -5 0 -10 18 -10 40 0
22 5 40 10 40 6 0 10 -18 10 -40z m-80 -164 c0 -25 -4 -48 -10 -51 -6 -4 -10
13 -10 44 0 28 5 51 10 51 6 0 10 -20 10 -44z m2420 34 c0 -5 -4 -10 -10 -10
-5 0 -10 5 -10 10 0 6 5 10 10 10 6 0 10 -4 10 -10z m50 -61 c0 -5 -7 -9 -15
-9 -15 0 -20 12 -9 23 8 8 24 -1 24 -14z m-3 -51 c-3 -7 -5 -2 -5 12 0 14 2
19 5 13 2 -7 2 -19 0 -25z m-67 -202 c0 -3 -4 -8 -10 -11 -5 -3 -10 -1 -10 4
0 6 5 11 10 11 6 0 10 -2 10 -4z m68 -10 c-7 -8 -15 -12 -17 -11 -5 6 10 25
20 25 5 0 4 -6 -3 -14z m-155 -73 c-7 -2 -21 -2 -30 0 -10 3 -4 5 12 5 17 0
24 -2 18 -5z m-73 -23 c0 -5 -4 -10 -10 -10 -5 0 -10 5 -10 10 0 6 5 10 10 10
6 0 10 -4 10 -10z m56 -17 c-10 -10 -19 5 -10 18 6 11 8 11 12 0 2 -7 1 -15
-2 -18z m-39 -29 c-3 -3 -12 -4 -19 -1 -8 3 -5 6 6 6 11 1 17 -2 13 -5z
m-2497 -124 c0 -22 -4 -40 -10 -40 -5 0 -10 18 -10 40 0 22 5 40 10 40 6 0 10
-18 10 -40z m-20 -210 c0 -5 -18 -10 -40 -10 -22 0 -40 5 -40 10 0 6 18 10 40
10 22 0 40 -4 40 -10z m-300 -590 c0 -22 -4 -40 -10 -40 -5 0 -10 18 -10 40 0
22 5 40 10 40 6 0 10 -18 10 -40z m1352 -77 c35 -10 69 -23 78 -30 138 -116
185 -221 162 -368 -11 -72 -23 -104 -49 -132 -7 -8 -20 -27 -30 -43 -9 -17
-23 -30 -30 -30 -7 0 -13 -5 -13 -11 0 -30 -120 -87 -200 -96 -145 -15 -305
77 -361 207 -6 14 -17 40 -26 58 -24 50 -13 183 20 256 41 89 148 180 232 197
59 12 157 9 217 -8z m-1592 -483 c0 -22 -4 -40 -10 -40 -5 0 -10 18 -10 40 0
22 5 40 10 40 6 0 10 -18 10 -40z m-80 -160 c0 -22 -4 -40 -10 -40 -5 0 -10
18 -10 40 0 22 5 40 10 40 6 0 10 -18 10 -40z m-160 -400 c0 -22 -4 -40 -10
-40 -5 0 -10 18 -10 40 0 22 5 40 10 40 6 0 10 -18 10 -40z"/>
<path d="M9382 3378 c2 -13 8 -23 13 -23 6 0 11 10 13 23 2 15 -2 22 -13 22
-11 0 -15 -7 -13 -22z"/>
<path d="M11540 3010 c0 -5 5 -10 11 -10 5 0 7 5 4 10 -3 6 -8 10 -11 10 -2 0
-4 -4 -4 -10z"/>
<path d="M11600 2887 c0 -17 27 -54 34 -46 2 2 -5 18 -15 34 -14 22 -19 25
-19 12z"/>
<path d="M11470 2640 c0 -36 3 -40 25 -40 23 0 25 4 25 40 0 36 -2 40 -25 40
-22 0 -25 -4 -25 -40z"/>
<path d="M8605 2590 c3 -5 8 -10 11 -10 2 0 4 5 4 10 0 6 -5 10 -11 10 -5 0
-7 -4 -4 -10z"/>
<path d="M8700 2310 c-13 -8 -12 -10 3 -10 9 0 17 5 17 10 0 12 -1 12 -20 0z"/>
<path d="M11279 2263 c0 -10 -2 -34 -3 -53 -2 -19 -1 -29 1 -22 3 7 22 12 44
12 38 0 39 -1 40 -37 0 -35 1 -36 11 -15 9 19 17 22 40 17 17 -4 28 -2 28 4 0
6 -10 11 -22 11 -37 1 -58 24 -58 64 0 35 -1 36 -40 36 -31 0 -40 -4 -41 -17z"/>
<path d="M8152 880 c0 -14 2 -19 5 -12 2 6 2 18 0 25 -3 6 -5 1 -5 -13z"/>
<path d="M8109 853 c12 -39 39 -103 45 -103 7 0 -5 43 -26 88 -23 48 -30 54
-19 15z"/>
<path d="M8202 749 c2 -6 8 -10 13 -10 5 0 11 4 13 10 2 6 -4 11 -13 11 -9 0
-15 -5 -13 -11z"/>
<path d="M8231 694 c0 -11 3 -14 6 -6 3 7 2 16 -1 19 -3 4 -6 -2 -5 -13z"/>
<path d="M8093 563 c9 -2 25 -2 35 0 9 3 1 5 -18 5 -19 0 -27 -2 -17 -5z"/>
<path d="M8145 547 c-4 -10 -5 -21 -1 -24 10 -10 18 4 13 24 -4 17 -4 17 -12
0z"/>
<path d="M8025 540 c-3 -5 1 -10 9 -10 8 0 18 5 21 10 3 6 -1 10 -9 10 -8 0
-18 -4 -21 -10z"/>
<path d="M8068 523 c6 -2 18 -2 25 0 6 3 1 5 -13 5 -14 0 -19 -2 -12 -5z"/>
<path d="M7880 470 c-40 -22 -37 -25 9 -9 17 6 31 15 31 20 0 11 2 12 -40 -11z"/>
<path d="M7943 443 c9 -2 23 -2 30 0 6 3 -1 5 -18 5 -16 0 -22 -2 -12 -5z"/>
<path d="M7820 390 c0 -5 5 -10 10 -10 6 0 10 5 10 10 0 6 -4 10 -10 10 -5 0
-10 -4 -10 -10z"/>
</g>
</svg>
